<svg version="1.1" viewBox="0.0 0.0 600.0 371.0" fill="none" stroke="none" stroke-linecap="square" stroke-miterlimit="10" width="600" height="371" xmlns:xlink="http://www.w3.org/1999/xlink" xmlns="http://www.w3.org/2000/svg"><path fill="#ffffff" d="M0 0L600.0 0L600.0 371.0L0 371.0L0 0Z" fill-rule="nonzero"/><path stroke="#333333" stroke-width="1.0" stroke-linecap="butt" d="M45.5 254.5L581.5 254.5" fill-rule="nonzero"/><path stroke="#cccccc" stroke-width="1.0" stroke-linecap="butt" d="M45.5 213.5L581.5 213.5" fill-rule="nonzero"/><path stroke="#cccccc" stroke-width="1.0" stroke-linecap="butt" d="M45.5 171.5L581.5 171.5" fill-rule="nonzero"/><path stroke="#cccccc" stroke-width="1.0" stroke-linecap="butt" d="M45.5 129.5L581.5 129.5" fill-rule="nonzero"/><path stroke="#cccccc" stroke-width="1.0" stroke-linecap="butt" d="M45.5 88.5L581.5 88.5" fill-rule="nonzero"/><clipPath id="id_0"><path d="M45.55 88.28333L581.45 88.28333L581.45 254.65834L45.55 254.65834L45.55 88.28333Z" clip-rule="nonzero"/></clipPath><path stroke="#000000" stroke-width="2.0" stroke-linecap="butt" stroke-opacity="0.0" clip-path="url(#id_0)" d="M88.0 255.0L69.0 255.0L69.0 165.0C69.0 163.89543 69.89543 163.0 71.0 163.0L86.0 163.0C87.10457 163.0 88.0 163.89543 88.0 165.0Z" fill-rule="nonzero"/><path fill="#4285f4" clip-path="url(#id_0)" d="M88.0 255.0L69.0 255.0L69.0 165.0C69.0 163.89543 69.89543 163.0 71.0 163.0L86.0 163.0C87.10457 163.0 88.0 163.89543 88.0 165.0Z" fill-rule="nonzero"/><path stroke="#000000" stroke-width="2.0" stroke-linecap="butt" stroke-opacity="0.0" clip-path="url(#id_0)" d="M152.0 255.0L133.0 255.0L133.0 198.0C133.0 196.89543 133.89543 196.0 135.0 196.0L150.0 196.0C151.10457 196.0 152.0 196.89543 152.0 198.0Z" fill-rule="nonzero"/><path fill="#4285f4" clip-path="url(#id_0)" d="M152.0 255.0L133.0 255.0L133.0 198.0C133.0 196.89543 133.89543 196.0 135.0 196.0L150.0 196.0C151.10457 196.0 152.0 196.89543 152.0 198.0Z" fill-rule="nonzero"/><path stroke="#000000" stroke-width="2.0" stroke-linecap="butt" stroke-opacity="0.0" clip-path="url(#id_0)" d="M216.0 255.0L197.0 255.0L197.0 214.0C197.0 212.89543 197.89543 212.0 199.0 212.0L214.0 212.0C215.10457 212.0 216.0 212.89543 216.0 214.0Z" fill-rule="nonzero"/><path fill="#4285f4" clip-path="url(#id_0)" d="M216.0 255.0L197.0 255.0L197.0 214.0C197.0 212.89543 197.89543 212.0 199.0 212.0L214.0 212.0C215.10457 212.0 216.0 212.89543 216.0 214.0Z" fill-rule="nonzero"/><path stroke="#000000" stroke-width="2.0" stroke-linecap="butt" stroke-opacity="0.0" clip-path="url(#id_0)" d="M280.0 255.0L261.0 255.0L261.0 207.0C261.0 205.89543 261.89542 205.0 263.0 205.0L278.0 205.0C279.10458 205.0 280.0 205.89543 280.0 207.0Z" fill-rule="nonzero"/><path fill="#4285f4" clip-path="url(#id_0)" d="M280.0 255.0L261.0 255.0L261.0 207.0C261.0 205.89543 261.89542 205.0 263.0 205.0L278.0 205.0C279.10458 205.0 280.0 205.89543 280.0 207.0Z" fill-rule="nonzero"/><path stroke="#000000" stroke-width="2.0" stroke-linecap="butt" stroke-opacity="0.0" clip-path="url(#id_0)" d="M345.0 255.0L326.0 255.0L326.0 141.0C326.0 139.89543 326.89542 139.0 328.0 139.0L343.0 139.0C344.10458 139.0 345.0 139.89543 345.0 141.0Z" fill-rule="nonzero"/><path fill="#4285f4" clip-path="url(#id_0)" d="M345.0 255.0L326.0 255.0L326.0 141.0C326.0 139.89543 326.89542 139.0 328.0 139.0L343.0 139.0C344.10458 139.0 345.0 139.89543 345.0 141.0Z" fill-rule="nonzero"/><path stroke="#000000" stroke-width="2.0" stroke-linecap="butt" stroke-opacity="0.0" clip-path="url(#id_0)" d="M409.0 255.0L390.0 255.0L390.0 189.0C390.0 187.89543 390.89542 187.0 392.0 187.0L407.0 187.0C408.10458 187.0 409.0 187.89543 409.0 189.0Z" fill-rule="nonzero"/><path fill="#4285f4" clip-path="url(#id_0)" d="M409.0 255.0L390.0 255.0L390.0 189.0C390.0 187.89543 390.89542 187.0 392.0 187.0L407.0 187.0C408.10458 187.0 409.0 187.89543 409.0 189.0Z" fill-rule="nonzero"/><path stroke="#000000" stroke-width="2.0" stroke-linecap="butt" stroke-opacity="0.0" clip-path="url(#id_0)" d="M473.0 255.0L454.0 255.0L454.0 182.0C454.0 180.89543 454.89542 180.0 456.0 180.0L471.0 180.0C472.10458 180.0 473.0 180.89543 473.0 182.0Z" fill-rule="nonzero"/><path fill="#4285f4" clip-path="url(#id_0)" d="M473.0 255.0L454.0 255.0L454.0 182.0C454.0 180.89543 454.89542 180.0 456.0 180.0L471.0 180.0C472.10458 180.0 473.0 180.89543 473.0 182.0Z" fill-rule="nonzero"/><path stroke="#000000" stroke-width="2.0" stroke-linecap="butt" stroke-opacity="0.0" clip-path="url(#id_0)" d="M537.0 255.0L518.0 255.0L518.0 154.0C518.0 152.89543 518.89545 152.0 520.0 152.0L535.0 152.0C536.10455 152.0 537.0 152.89543 537.0 154.0Z" fill-rule="nonzero"/><path fill="#4285f4" clip-path="url(#id_0)" d="M537.0 255.0L518.0 255.0L518.0 154.0C518.0 152.89543 518.89545 152.0 520.0 152.0L535.0 152.0C536.10455 152.0 537.0 152.89543 537.0 154.0Z" fill-rule="nonzero"/><path stroke="#000000" stroke-width="2.0" stroke-linecap="butt" stroke-opacity="0.0" clip-path="url(#id_0)" d="M109.0 255.0L90.0 255.0L90.0 204.0C90.0 202.89543 90.89543 202.0 92.0 202.0L107.0 202.0C108.10457 202.0 109.0 202.89543 109.0 204.0Z" fill-rule="nonzero"/><path fill="#ea4335" clip-path="url(#id_0)" d="M109.0 255.0L90.0 255.0L90.0 204.0C90.0 202.89543 90.89543 202.0 92.0 202.0L107.0 202.0C108.10457 202.0 109.0 202.89543 109.0 204.0Z" fill-rule="nonzero"/><path stroke="#000000" stroke-width="2.0" stroke-linecap="butt" stroke-opacity="0.0" clip-path="url(#id_0)" d="M173.0 255.0L154.0 255.0L154.0 188.0C154.0 186.89543 154.89543 186.0 156.0 186.0L171.0 186.0C172.10457 186.0 173.0 186.89543 173.0 188.0Z" fill-rule="nonzero"/><path fill="#ea4335" clip-path="url(#id_0)" d="M173.0 255.0L154.0 255.0L154.0 188.0C154.0 186.89543 154.89543 186.0 156.0 186.0L171.0 186.0C172.10457 186.0 173.0 186.89543 173.0 188.0Z" fill-rule="nonzero"/><path stroke="#000000" stroke-width="2.0" stroke-linecap="butt" stroke-opacity="0.0" clip-path="url(#id_0)" d="M237.0 255.0L218.0 255.0L218.0 184.0C218.0 182.89543 218.89543 182.0 220.0 182.0L235.0 182.0C236.10457 182.0 237.0 182.89543 237.0 184.0Z" fill-rule="nonzero"/><path fill="#ea4335" clip-path="url(#id_0)" d="M237.0 255.0L218.0 255.0L218.0 184.0C218.0 182.89543 218.89543 182.0 220.0 182.0L235.0 182.0C236.10457 182.0 237.0 182.89543 237.0 184.0Z" fill-rule="nonzero"/><path stroke="#000000" stroke-width="2.0" stroke-linecap="butt" stroke-opacity="0.0" clip-path="url(#id_0)" d="M301.0 255.0L282.0 255.0L282.0 200.0C282.0 198.89543 282.89542 198.0 284.0 198.0L299.0 198.0C300.10458 198.0 301.0 198.89543 301.0 200.0Z" fill-rule="nonzero"/><path fill="#ea4335" clip-path="url(#id_0)" d="M301.0 255.0L282.0 255.0L282.0 200.0C282.0 198.89543 282.89542 198.0 284.0 198.0L299.0 198.0C300.10458 198.0 301.0 198.89543 301.0 200.0Z" fill-rule="nonzero"/><path stroke="#000000" stroke-width="2.0" stroke-linecap="butt" stroke-opacity="0.0" clip-path="url(#id_0)" d="M366.0 255.0L347.0 255.0L347.0 100.0C347.0 98.89543 347.89542 98.0 349.0 98.0L364.0 98.0C365.10458 98.0 366.0 98.89543 366.0 100.0Z" fill-rule="nonzero"/><path fill="#ea4335" clip-path="url(#id_0)" d="M366.0 255.0L347.0 255.0L347.0 100.0C347.0 98.89543 347.89542 98.0 349.0 98.0L364.0 98.0C365.10458 98.0 366.0 98.89543 366.0 100.0Z" fill-rule="nonzero"/><path stroke="#000000" stroke-width="2.0" stroke-linecap="butt" stroke-opacity="0.0" clip-path="url(#id_0)" d="M430.0 255.0L411.0 255.0L411.0 207.0C411.0 205.89543 411.89542 205.0 413.0 205.0L428.0 205.0C429.10458 205.0 430.0 205.89543 430.0 207.0Z" fill-rule="nonzero"/><path fill="#ea4335" clip-path="url(#id_0)" d="M430.0 255.0L411.0 255.0L411.0 207.0C411.0 205.89543 411.89542 205.0 413.0 205.0L428.0 205.0C429.10458 205.0 430.0 205.89543 430.0 207.0Z" fill-rule="nonzero"/><path stroke="#000000" stroke-width="2.0" stroke-linecap="butt" stroke-opacity="0.0" clip-path="url(#id_0)" d="M494.0 255.0L475.0 255.0L475.0 160.0C475.0 158.89543 475.89542 158.0 477.0 158.0L492.0 158.0C493.10458 158.0 494.0 158.89543 494.0 160.0Z" fill-rule="nonzero"/><path fill="#ea4335" clip-path="url(#id_0)" d="M494.0 255.0L475.0 255.0L475.0 160.0C475.0 158.89543 475.89542 158.0 477.0 158.0L492.0 158.0C493.10458 158.0 494.0 158.89543 494.0 160.0Z" fill-rule="nonzero"/><path stroke="#000000" stroke-width="2.0" stroke-linecap="butt" stroke-opacity="0.0" clip-path="url(#id_0)" d="M558.0 255.0L539.0 255.0L539.0 143.0C539.0 141.89543 539.89545 141.0 541.0 141.0L556.0 141.0C557.10455 141.0 558.0 141.89543 558.0 143.0Z" fill-rule="nonzero"/><path fill="#ea4335" clip-path="url(#id_0)" d="M558.0 255.0L539.0 255.0L539.0 143.0C539.0 141.89543 539.89545 141.0 541.0 141.0L556.0 141.0C557.10455 141.0 558.0 141.89543 558.0 143.0Z" fill-rule="nonzero"/><path fill="#000000" d="M275.60938 349.45L275.60938 341.8719L272.78125 341.8719L272.78125 340.85626L279.59375 340.85626L279.59375 341.8719L276.75 341.8719L276.75 349.45L275.60938 349.45ZM284.54688 347.45L285.64062 347.575Q285.39062 348.52814 284.6875 349.0594Q283.98438 349.59064 282.90625 349.59064Q281.54688 349.59064 280.73438 348.7469Q279.9375 347.90314 279.9375 346.3875Q279.9375 344.825 280.75 343.96564Q281.5625 343.09064 282.84375 343.09064Q284.09375 343.09064 284.875 343.9344Q285.67188 344.77814 285.67188 346.325Q285.67188 346.41876 285.67188 346.60626L281.03125 346.60626Q281.09375 347.6375 281.60938 348.1844Q282.125 348.71564 282.90625 348.71564Q283.48438 348.71564 283.89062 348.41876Q284.3125 348.10626 284.54688 347.45ZM281.09375 345.7469L284.5625 345.7469Q284.5 344.95 284.17188 344.5594Q283.65625 343.95 282.85938 343.95Q282.125 343.95 281.625 344.4344Q281.14062 344.91876 281.09375 345.7469ZM291.35938 348.6844Q290.76562 349.1844 290.21875 349.3875Q289.6875 349.59064 289.0625 349.59064Q288.03125 349.59064 287.48438 349.09064Q286.9375 348.59064 286.9375 347.8094Q286.9375 347.35626 287.14062 346.98126Q287.34375 346.59064 287.6875 346.3719Q288.03125 346.1375 288.45312 346.02814Q288.75 345.9344 289.39062 345.85626Q290.65625 345.71564 291.26562 345.4969Q291.26562 345.27814 291.26562 345.23126Q291.26562 344.575 290.96875 344.3094Q290.5625 343.96564 289.76562 343.96564Q289.03125 343.96564 288.67188 344.23126Q288.3125 344.48126 288.14062 345.1375L287.10938 344.9969Q287.25 344.34064 287.57812 343.9344Q287.90625 343.52814 288.51562 343.3094Q289.125 343.09064 289.92188 343.09064Q290.71875 343.09064 291.21875 343.27814Q291.71875 343.46564 291.95312 343.7469Q292.1875 344.02814 292.28125 344.46564Q292.32812 344.73126 292.32812 345.4344L292.32812 346.84064Q292.32812 348.3094 292.39062 348.7Q292.46875 349.09064 292.67188 349.45L291.5625 349.45Q291.40625 349.1219 291.35938 348.6844ZM291.26562 346.325Q290.6875 346.5594 289.54688 346.73126Q288.89062 346.825 288.625 346.95Q288.35938 347.0594 288.20312 347.27814Q288.0625 347.4969 288.0625 347.77814Q288.0625 348.2 288.375 348.48126Q288.70312 348.7625 289.3125 348.7625Q289.92188 348.7625 290.39062 348.4969Q290.875 348.23126 291.09375 347.7625Q291.26562 347.40314 291.26562 346.71564L291.26562 346.325ZM294.29688 349.45L294.29688 343.23126L295.23438 343.23126L295.23438 344.10626Q295.53125 343.6375 296.01562 343.3719Q296.5 343.09064 297.125 343.09064Q297.8125 343.09064 298.25 343.3719Q298.70312 343.65314 298.875 344.16876Q299.625 343.09064 300.79688 343.09064Q301.73438 343.09064 302.21875 343.60626Q302.71875 344.10626 302.71875 345.1844L302.71875 349.45L301.67188 349.45L301.67188 345.52814Q301.67188 344.90314 301.5625 344.6219Q301.46875 344.34064 301.20312 344.16876Q300.9375 343.9969 300.5625 343.9969Q299.90625 343.9969 299.46875 344.4344Q299.04688 344.8719 299.04688 345.84064L299.04688 349.45L297.98438 349.45L297.98438 345.40314Q297.98438 344.7 297.71875 344.35626Q297.46875 343.9969 296.89062 343.9969Q296.4375 343.9969 296.0625 344.23126Q295.6875 344.46564 295.51562 344.91876Q295.34375 345.3719 295.34375 346.21564L295.34375 349.45L294.29688 349.45ZM308.29688 349.45L308.29688 343.23126L309.23438 343.23126L309.23438 344.10626Q309.53125 343.6375 310.01562 343.3719Q310.5 343.09064 311.125 343.09064Q311.8125 343.09064 312.25 343.3719Q312.70312 343.65314 312.875 344.16876Q313.625 343.09064 314.79688 343.09064Q315.73438 343.09064 316.21875 343.60626Q316.71875 344.10626 316.71875 345.1844L316.71875 349.45L315.67188 349.45L315.67188 345.52814Q315.67188 344.90314 315.5625 344.6219Q315.46875 344.34064 315.20312 344.16876Q314.9375 343.9969 314.5625 343.9969Q313.90625 343.9969 313.46875 344.4344Q313.04688 344.8719 313.04688 345.84064L313.04688 349.45L311.98438 349.45L311.98438 345.40314Q311.98438 344.7 311.71875 344.35626Q311.46875 343.9969 310.89062 343.9969Q310.4375 343.9969 310.0625 344.23126Q309.6875 344.46564 309.51562 344.91876Q309.34375 345.3719 309.34375 346.21564L309.34375 349.45L308.29688 349.45ZM323.54688 347.45L324.64062 347.575Q324.39062 348.52814 323.6875 349.0594Q322.98438 349.59064 321.90625 349.59064Q320.54688 349.59064 319.73438 348.7469Q318.9375 347.90314 318.9375 346.3875Q318.9375 344.825 319.75 343.96564Q320.5625 343.09064 321.84375 343.09064Q323.09375 343.09064 323.875 343.9344Q324.67188 344.77814 324.67188 346.325Q324.67188 346.41876 324.67188 346.60626L320.03125 346.60626Q320.09375 347.6375 320.60938 348.1844Q321.125 348.71564 321.90625 348.71564Q322.48438 348.71564 322.89062 348.41876Q323.3125 348.10626 323.54688 347.45ZM320.09375 345.7469L323.5625 345.7469Q323.5 344.95 323.17188 344.5594Q322.65625 343.95 321.85938 343.95Q321.125 343.95 320.625 344.4344Q320.14062 344.91876 320.09375 345.7469ZM326.29688 349.45L326.29688 343.23126L327.23438 343.23126L327.23438 344.10626Q327.53125 343.6375 328.01562 343.3719Q328.5 343.09064 329.125 343.09064Q329.8125 343.09064 330.25 343.3719Q330.70312 343.65314 330.875 344.16876Q331.625 343.09064 332.79688 343.09064Q333.73438 343.09064 334.21875 343.60626Q334.71875 344.10626 334.71875 345.1844L334.71875 349.45L333.67188 349.45L333.67188 345.52814Q333.67188 344.90314 333.5625 344.6219Q333.46875 344.34064 333.20312 344.16876Q332.9375 343.9969 332.5625 343.9969Q331.90625 343.9969 331.46875 344.4344Q331.04688 344.8719 331.04688 345.84064L331.04688 349.45L329.98438 349.45L329.98438 345.40314Q329.98438 344.7 329.71875 344.35626Q329.46875 343.9969 328.89062 343.9969Q328.4375 343.9969 328.0625 344.23126Q327.6875 344.46564 327.51562 344.91876Q327.34375 345.3719 327.34375 346.21564L327.34375 349.45L326.29688 349.45ZM338.26562 349.45L337.28125 349.45L337.28125 340.85626L338.34375 340.85626L338.34375 343.91876Q339.01562 343.09064 340.04688 343.09064Q340.625 343.09064 341.125 343.325Q341.64062 343.54376 341.96875 343.96564Q342.3125 344.3875 342.5 344.98126Q342.6875 345.575 342.6875 346.2469Q342.6875 347.84064 341.89062 348.71564Q341.09375 349.59064 340.0 349.59064Q338.89062 349.59064 338.26562 348.66876L338.26562 349.45ZM338.25 346.29376Q338.25 347.40314 338.5625 347.90314Q339.0625 348.71564 339.90625 348.71564Q340.59375 348.71564 341.09375 348.1219Q341.60938 347.52814 341.60938 346.325Q341.60938 345.10626 341.125 344.52814Q340.64062 343.95 339.95312 343.95Q339.26562 343.95 338.75 344.5594Q338.25 345.15314 338.25 346.29376ZM348.54688 347.45L349.64062 347.575Q349.39062 348.52814 348.6875 349.0594Q347.98438 349.59064 346.90625 349.59064Q345.54688 349.59064 344.73438 348.7469Q343.9375 347.90314 343.9375 346.3875Q343.9375 344.825 344.75 343.96564Q345.5625 343.09064 346.84375 343.09064Q348.09375 343.09064 348.875 343.9344Q349.67188 344.77814 349.67188 346.325Q349.67188 346.41876 349.67188 346.60626L345.03125 346.60626Q345.09375 347.6375 345.60938 348.1844Q346.125 348.71564 346.90625 348.71564Q347.48438 348.71564 347.89062 348.41876Q348.3125 348.10626 348.54688 347.45ZM345.09375 345.7469L348.5625 345.7469Q348.5 344.95 348.17188 344.5594Q347.65625 343.95 346.85938 343.95Q346.125 343.95 345.625 344.4344Q345.14062 344.91876 345.09375 345.7469ZM351.28125 349.45L351.28125 343.23126L352.23438 343.23126L352.23438 344.16876Q352.59375 343.5125 352.89062 343.3094Q353.20312 343.09064 353.57812 343.09064Q354.10938 343.09064 354.65625 343.41876L354.29688 344.40314Q353.90625 344.16876 353.53125 344.16876Q353.17188 344.16876 352.89062 344.3875Q352.625 344.59064 352.51562 344.96564Q352.32812 345.52814 352.32812 346.1844L352.32812 349.45L351.28125 349.45Z" fill-rule="nonzero"/><path fill="#000000" d="M33.05 254.42395Q33.05 252.8927 33.3625 251.97083Q33.675 251.03333 34.284374 250.53333Q34.909374 250.03333 35.846874 250.03333Q36.534374 250.03333 37.05 250.31458Q37.58125 250.59583 37.925 251.12708Q38.26875 251.6427 38.45625 252.3927Q38.64375 253.1427 38.64375 254.42395Q38.64375 255.93958 38.33125 256.86145Q38.034374 257.78333 37.409374 258.29895Q36.8 258.79895 35.846874 258.79895Q34.6125 258.79895 33.89375 257.90833Q33.05 256.84583 33.05 254.42395ZM34.128124 254.42395Q34.128124 256.53333 34.628124 257.23645Q35.128124 257.93958 35.846874 257.93958Q36.58125 257.93958 37.065624 257.23645Q37.565624 256.53333 37.565624 254.42395Q37.565624 252.29895 37.065624 251.61145Q36.58125 250.90833 35.83125 250.90833Q35.1125 250.90833 34.675 251.5177Q34.128124 252.29895 34.128124 254.42395Z" fill-rule="nonzero"/><path fill="#000000" d="M31.596874 216.04897L31.596874 217.06459L25.909374 217.06459Q25.909374 216.68959 26.034374 216.33022Q26.253124 215.75209 26.721874 215.18959Q27.20625 214.62709 28.1125 213.89272Q29.51875 212.73647 30.003124 212.06459Q30.503124 211.39272 30.503124 210.79897Q30.503124 210.17397 30.05 209.75209Q29.596874 209.31459 28.878124 209.31459Q28.1125 209.31459 27.659374 209.76772Q27.20625 210.22084 27.190624 211.03334L26.1125 210.92397Q26.221874 209.70522 26.940624 209.08022Q27.675 208.43959 28.909374 208.43959Q30.14375 208.43959 30.8625 209.12709Q31.58125 209.81459 31.58125 210.83022Q31.58125 211.34584 31.3625 211.84584Q31.159374 212.33022 30.659374 212.89272Q30.175 213.43959 29.05 214.39272Q28.096874 215.18959 27.815624 215.48647Q27.55 215.76772 27.378124 216.04897L31.596874 216.04897ZM33.05 212.83022Q33.05 211.29897 33.3625 210.37709Q33.675 209.43959 34.284374 208.93959Q34.909374 208.43959 35.846874 208.43959Q36.534374 208.43959 37.05 208.72084Q37.58125 209.00209 37.925 209.53334Q38.26875 210.04897 38.45625 210.79897Q38.64375 211.54897 38.64375 212.83022Q38.64375 214.34584 38.33125 215.26772Q38.034374 216.18959 37.409374 216.70522Q36.8 217.20522 35.846874 217.20522Q34.6125 217.20522 33.89375 216.31459Q33.05 215.25209 33.05 212.83022ZM34.128124 212.83022Q34.128124 214.93959 34.628124 215.64272Q35.128124 216.34584 35.846874 216.34584Q36.58125 216.34584 37.065624 215.64272Q37.565624 214.93959 37.565624 212.83022Q37.565624 210.70522 37.065624 210.01772Q36.58125 209.31459 35.83125 209.31459Q35.1125 209.31459 34.675 209.92397Q34.128124 210.70522 34.128124 212.83022Z" fill-rule="nonzero"/><path fill="#000000" d="M29.425 175.47084L29.425 173.40834L25.70625 173.40834L25.70625 172.43959L29.628124 166.87709L30.4875 166.87709L30.4875 172.43959L31.64375 172.43959L31.64375 173.40834L30.4875 173.40834L30.4875 175.47084L29.425 175.47084ZM29.425 172.43959L29.425 168.58022L26.7375 172.43959L29.425 172.43959ZM33.05 171.23647Q33.05 169.70522 33.3625 168.78334Q33.675 167.84584 34.284374 167.34584Q34.909374 166.84584 35.846874 166.84584Q36.534374 166.84584 37.05 167.12709Q37.58125 167.40834 37.925 167.93959Q38.26875 168.45522 38.45625 169.20522Q38.64375 169.95522 38.64375 171.23647Q38.64375 172.75209 38.33125 173.67397Q38.034374 174.59584 37.409374 175.11147Q36.8 175.61147 35.846874 175.61147Q34.6125 175.61147 33.89375 174.72084Q33.05 173.65834 33.05 171.23647ZM34.128124 171.23647Q34.128124 173.34584 34.628124 174.04897Q35.128124 174.75209 35.846874 174.75209Q36.58125 174.75209 37.065624 174.04897Q37.565624 173.34584 37.565624 171.23647Q37.565624 169.11147 37.065624 168.42397Q36.58125 167.72084 35.83125 167.72084Q35.1125 167.72084 34.675 168.33022Q34.128124 169.11147 34.128124 171.23647Z" fill-rule="nonzero"/><path fill="#000000" d="M31.51875 127.392715L30.471874 127.47084Q30.33125 126.84584 30.08125 126.56459Q29.64375 126.111465 29.01875 126.111465Q28.51875 126.111465 28.128124 126.392715Q27.64375 126.767715 27.346874 127.47084Q27.065624 128.15834 27.05 129.43959Q27.425 128.86147 27.971874 128.58022Q28.534374 128.29897 29.14375 128.29897Q30.190624 128.29897 30.925 129.08022Q31.675 129.86147 31.675 131.08022Q31.675 131.89272 31.315624 132.59584Q30.971874 133.28334 30.3625 133.65834Q29.753124 134.01772 28.9875 134.01772Q27.659374 134.01772 26.83125 133.04897Q26.003124 132.08022 26.003124 129.86147Q26.003124 127.361465 26.925 126.236465Q27.721874 125.25209 29.08125 125.25209Q30.096874 125.25209 30.7375 125.830215Q31.39375 126.392715 31.51875 127.392715ZM27.221874 131.09584Q27.221874 131.64272 27.440624 132.14272Q27.675 132.62709 28.08125 132.89272Q28.503124 133.15834 28.971874 133.15834Q29.628124 133.15834 30.1125 132.62709Q30.596874 132.08022 30.596874 131.15834Q30.596874 130.26772 30.1125 129.75209Q29.64375 129.23647 28.925 129.23647Q28.20625 129.23647 27.70625 129.75209Q27.221874 130.26772 27.221874 131.09584ZM33.05 129.64272Q33.05 128.11147 33.3625 127.18959Q33.675 126.25209 34.284374 125.75209Q34.909374 125.25209 35.846874 125.25209Q36.534374 125.25209 37.05 125.53334Q37.58125 125.81459 37.925 126.34584Q38.26875 126.861465 38.45625 127.611465Q38.64375 128.36147 38.64375 129.64272Q38.64375 131.15834 38.33125 132.08022Q38.034374 133.00209 37.409374 133.51772Q36.8 134.01772 35.846874 134.01772Q34.6125 134.01772 33.89375 133.12709Q33.05 132.06459 33.05 129.64272ZM34.128124 129.64272Q34.128124 131.75209 34.628124 132.45522Q35.128124 133.15834 35.846874 133.15834Q36.58125 133.15834 37.065624 132.45522Q37.565624 131.75209 37.565624 129.64272Q37.565624 127.517715 37.065624 126.830215Q36.58125 126.12709 35.83125 126.12709Q35.1125 126.12709 34.675 126.736465Q34.128124 127.517715 34.128124 129.64272Z" fill-rule="nonzero"/><path fill="#000000" d="M27.675 87.62708Q27.01875 87.37708 26.690624 86.93958Q26.378124 86.48646 26.378124 85.87708Q26.378124 84.93958 27.05 84.29896Q27.7375 83.65833 28.846874 83.65833Q29.971874 83.65833 30.659374 84.31458Q31.346874 84.97083 31.346874 85.90833Q31.346874 86.50208 31.034374 86.93958Q30.721874 87.37708 30.08125 87.62708Q30.878124 87.87708 31.284374 88.45521Q31.690624 89.03333 31.690624 89.83021Q31.690624 90.92396 30.909374 91.67396Q30.14375 92.42396 28.8625 92.42396Q27.596874 92.42396 26.815624 91.67396Q26.034374 90.92396 26.034374 89.79896Q26.034374 88.95521 26.45625 88.39271Q26.89375 87.83021 27.675 87.62708ZM27.45625 85.83021Q27.45625 86.43958 27.846874 86.83021Q28.253124 87.22083 28.878124 87.22083Q29.4875 87.22083 29.878124 86.84583Q30.26875 86.45521 30.26875 85.89271Q30.26875 85.31458 29.8625 84.92396Q29.45625 84.51771 28.8625 84.51771Q28.253124 84.51771 27.846874 84.90833Q27.45625 85.29896 27.45625 85.83021ZM27.128124 89.79896Q27.128124 90.25208 27.33125 90.67396Q27.55 91.09583 27.971874 91.33021Q28.39375 91.56458 28.878124 91.56458Q29.628124 91.56458 30.1125 91.08021Q30.6125 90.59583 30.6125 89.84583Q30.6125 89.08021 30.1125 88.58021Q29.6125 88.08021 28.846874 88.08021Q28.096874 88.08021 27.6125 88.58021Q27.128124 89.06458 27.128124 89.79896ZM33.05 88.04896Q33.05 86.51771 33.3625 85.59583Q33.675 84.65833 34.284374 84.15833Q34.909374 83.65833 35.846874 83.65833Q36.534374 83.65833 37.05 83.93958Q37.58125 84.22083 37.925 84.75208Q38.26875 85.26771 38.45625 86.01771Q38.64375 86.76771 38.64375 88.04896Q38.64375 89.56458 38.33125 90.48646Q38.034374 91.40833 37.409374 91.92396Q36.8 92.42396 35.846874 92.42396Q34.6125 92.42396 33.89375 91.53333Q33.05 90.47083 33.05 88.04896ZM34.128124 88.04896Q34.128124 90.15833 34.628124 90.86146Q35.128124 91.56458 35.846874 91.56458Q36.58125 91.56458 37.065624 90.86146Q37.565624 90.15833 37.565624 88.04896Q37.565624 85.92396 37.065624 85.23646Q36.58125 84.53333 35.83125 84.53333Q35.1125 84.53333 34.675 85.14271Q34.128124 85.92396 34.128124 88.04896Z" fill-rule="nonzero"/><path fill="#000000" d="M49.96933 315.1166L46.223873 306.70865L47.08566 305.84686L55.64828 309.43765L54.742302 310.34363L52.17904 309.21667L49.648922 311.7468L50.82007 314.26587L49.96933 315.1166ZM49.229076 310.8629L51.284107 308.8079L48.97496 307.75827Q47.914303 307.29422 47.284534 306.92963Q47.748573 307.63675 48.113174 308.42117L49.229076 310.8629ZM57.08459 305.1729L57.946377 304.48788Q58.44356 305.33862 58.32203 306.2115Q58.200497 307.08432 57.438145 307.84665Q56.47692 308.8079 55.30578 308.7858Q54.14568 308.75262 53.07397 307.68094Q51.969116 306.57608 51.93597 305.3939Q51.891777 304.20062 52.797756 303.29465Q53.68164 302.41077 54.83069 302.45496Q55.990788 302.4881 57.08459 303.5819Q57.150883 303.64822 57.283466 303.7808L54.00205 307.0622Q54.775448 307.74722 55.52675 307.76932Q56.267 307.78036 56.819427 307.22794Q57.22822 306.81915 57.305565 306.32196Q57.382904 305.80267 57.08459 305.1729ZM53.438572 306.41034L55.89135 303.95758Q55.28368 303.4383 54.775448 303.3941Q53.97995 303.3278 53.416477 303.89127Q52.897194 304.41055 52.886147 305.10663Q52.886147 305.79163 53.438572 306.41034ZM58.83026 303.6261L59.448982 302.78644Q59.957214 303.16208 60.465446 303.1179Q60.98473 303.06262 61.50401 302.54337Q62.01224 302.03513 62.05644 301.59317Q62.10063 301.12915 61.81337 300.8419Q61.559254 300.58777 61.19465 300.6651Q60.940533 300.72034 60.178185 301.17334Q59.15067 301.781 58.68663 301.9578Q58.22259 302.11246 57.7917 302.01303Q57.360806 301.91357 57.02935 301.58212Q56.74209 301.29486 56.620552 300.90817Q56.49902 300.52148 56.56531 300.12372Q56.620552 299.8254 56.830475 299.43872Q57.040398 299.052 57.39395 298.69846Q57.902184 298.19022 58.44356 297.95822Q58.984943 297.7041 59.426884 297.7704Q59.868824 297.83667 60.35496 298.19022L59.725193 299.01886Q59.349545 298.7316 58.91865 298.78687Q58.48776 298.82 58.045815 299.26193Q57.537582 299.77017 57.49339 300.1679Q57.438145 300.55463 57.670166 300.78665Q57.813797 300.93027 58.01267 300.95236Q58.233643 300.97446 58.498806 300.86398Q58.653484 300.7977 59.349545 300.3889Q60.36601 299.81436 60.807953 299.6376Q61.249893 299.46082 61.680786 299.53815Q62.11168 299.61548 62.49838 300.0022Q62.874027 300.37784 62.984516 300.93027Q63.095 301.4606 62.874027 302.05722Q62.64201 302.6428 62.122726 303.16208Q61.26094 304.02386 60.4544 304.1233Q59.647854 304.20062 58.83026 303.6261ZM65.3931 299.69284L59.3164 293.61612L60.056652 292.8759L62.233215 295.05243Q62.155872 293.93655 62.95137 293.14105Q63.448555 292.64386 64.000984 292.48917Q64.553406 292.3124 65.05059 292.50024Q65.53673 292.677 66.18859 293.32886L68.972824 296.1131L68.232574 296.85336L65.44834 294.06912Q64.884865 293.50565 64.38768 293.4946Q63.890495 293.48355 63.448555 293.9255Q63.117096 294.25696 62.995564 294.73203Q62.874027 295.18503 63.039757 295.6159Q63.205486 296.02472 63.724766 296.544L66.13335 298.95258L65.3931 299.69284ZM72.67409 291.32907Q72.607796 292.10248 72.36473 292.6328Q72.132706 293.1521 71.690765 293.59402Q70.96156 294.32324 70.22131 294.35638Q69.48106 294.38953 68.92863 293.8371Q68.60822 293.5167 68.48669 293.1079Q68.3541 292.68805 68.4425 292.2903Q68.51984 291.8815 68.74081 291.50586Q68.88444 291.22964 69.28218 290.7214Q70.07768 289.72705 70.35389 289.14148Q70.19921 288.9868 70.16607 288.95364Q69.70203 288.4896 69.30428 288.51172Q68.77395 288.5559 68.21047 289.1194Q67.69119 289.63867 67.6249 290.0806Q67.54756 290.5115 67.89007 291.09708L67.061424 291.72684Q66.69682 291.16336 66.64158 290.64407Q66.58634 290.1248 66.86256 289.5392Q67.13876 288.95364 67.70224 288.39017Q68.26572 287.8267 68.751854 287.6057Q69.23799 287.38477 69.60259 287.4179Q69.96719 287.45105 70.34284 287.69412Q70.56381 287.8488 71.061 288.34598L72.05537 289.34033Q73.09393 290.3789 73.41434 290.61093Q73.7458 290.8319 74.14355 290.94238L73.3591 291.72684Q73.016594 291.6053 72.67409 291.32907ZM70.93947 289.72705Q70.696396 290.30157 70.01139 291.22964Q69.61364 291.75998 69.514206 292.0362Q69.40372 292.30136 69.447914 292.56653Q69.50316 292.82065 69.70203 293.0195Q70.000336 293.3178 70.42018 293.29572Q70.851074 293.26257 71.28197 292.8317Q71.71286 292.4008 71.85649 291.8815Q72.01118 291.35117 71.8344 290.86505Q71.70181 290.48938 71.21568 290.00327L70.93947 289.72705ZM77.502304 287.58362L71.4256 281.50693L73.7237 279.20883Q74.32032 278.6122 74.69597 278.34705Q75.2263 277.9714 75.734535 277.883Q76.253815 277.78357 76.806244 277.98245Q77.36972 278.17026 77.82271 278.62326Q78.59611 279.39667 78.6403 280.4352Q78.684494 281.4517 77.391815 282.74435L75.83397 284.30222L78.308846 286.77707L77.502304 287.58362ZM75.12686 283.5951L76.695755 282.0262Q77.4802 281.24176 77.51335 280.6341Q77.54649 280.00433 77.01617 279.474Q76.64051 279.09836 76.176476 279.03204Q75.71243 278.94366 75.31469 279.16464Q75.04952 279.3193 74.50815 279.8607L72.9503 281.41855L75.12686 283.5951ZM85.40201 278.60117Q85.33572 279.37457 85.09265 279.90488Q84.860634 280.42416 84.418686 280.86612Q83.68948 281.5953 82.949234 281.62845Q82.20898 281.66162 81.656555 281.1092Q81.33614 280.7888 81.214615 280.37997Q81.08203 279.96014 81.17042 279.56238Q81.24776 279.1536 81.46873 278.77792Q81.61236 278.50174 82.01011 277.9935Q82.8056 276.9991 83.08182 276.41354Q82.92713 276.25888 82.89399 276.22574Q82.429955 275.7617 82.0322 275.78378Q81.50188 275.82797 80.9384 276.39145Q80.41911 276.91074 80.35282 277.3527Q80.27548 277.78357 80.61799 278.36914L79.78935 278.9989Q79.42474 278.43542 79.36951 277.91614Q79.31426 277.39688 79.59048 276.8113Q79.86669 276.22574 80.43017 275.66226Q80.99364 275.0988 81.479774 274.8778Q81.96591 274.65683 82.33051 274.68997Q82.695114 274.7231 83.07076 274.9662Q83.29174 275.12088 83.788925 275.61804L84.78329 276.61243Q85.82185 277.651 86.14226 277.883Q86.47372 278.10397 86.87147 278.21448L86.08702 278.9989Q85.744514 278.87738 85.40201 278.60117ZM83.66739 276.9991Q83.42432 277.57364 82.73931 278.50174Q82.34156 279.03204 82.24213 279.30826Q82.13164 279.57343 82.175835 279.8386Q82.23108 280.0927 82.429955 280.2916Q82.728264 280.5899 83.14811 280.5678Q83.579 280.53467 84.009895 280.10376Q84.44079 279.67288 84.58442 279.1536Q84.7391 278.62326 84.56232 278.13712Q84.42974 277.76147 83.9436 277.27533L83.66739 276.9991ZM88.981735 274.77835L89.74409 275.31973Q89.48997 275.70645 89.2469 275.94952Q88.838104 276.3583 88.4956 276.45773Q88.142044 276.54614 87.83269 276.43564Q87.53438 276.31412 86.86042 275.64017L84.3303 273.11005L83.788925 273.65143L83.2144 273.0769L83.755775 272.53552L82.66197 271.4417L82.96028 270.25952L84.496025 271.79526L85.24733 271.04395L85.82185 271.61847L85.07055 272.36978L87.64487 274.9441Q87.96527 275.2645 88.08681 275.31973Q88.21939 275.36395 88.36302 275.33078Q88.50665 275.29764 88.67238 275.13193Q88.80496 274.99933 88.981735 274.77835ZM91.73283 270.5247L92.59461 269.83966Q93.0918 270.6904 92.97026 271.56323Q92.848724 272.43607 92.08638 273.19843Q91.12515 274.15964 89.95401 274.13754Q88.793915 274.1044 87.722206 273.03268Q86.61735 271.92786 86.584206 270.74564Q86.54001 269.5524 87.44599 268.64642Q88.32987 267.76254 89.47892 267.80673Q90.639015 267.83987 91.73283 268.9337Q91.79912 268.99997 91.9317 269.13257L88.65028 272.41397Q89.423676 273.099 90.17498 273.1211Q90.91523 273.13214 91.46766 272.5797Q91.87646 272.1709 91.9538 271.67374Q92.031136 271.15445 91.73283 270.5247ZM88.08681 271.76212L90.53958 269.30933Q89.931915 268.79007 89.423676 268.74585Q88.62818 268.67957 88.064705 269.24304Q87.545425 269.76233 87.53438 270.45837Q87.53438 271.1434 88.08681 271.76212ZM95.06948 270.01645L88.99278 263.93976L89.74409 263.18845L95.820786 269.26514L95.06948 270.01645Z" fill-rule="nonzero"/><path fill="#000000" d="M111.97241 313.846L112.60217 313.01736Q113.32033 313.69135 113.806465 313.71344Q114.2926 313.73553 114.71245 313.31567Q115.01076 313.01736 115.099144 312.66382Q115.17648 312.29922 115.021805 311.98987Q114.86713 311.65842 114.34785 311.13913L110.160446 306.95172L110.95594 306.15622L115.099144 310.29944Q115.861496 311.06177 116.09351 311.66946Q116.336586 312.26608 116.159805 312.8848Q115.971985 313.49246 115.4306 314.03384Q114.63511 314.82935 113.75122 314.80725Q112.86734 314.76303 111.97241 313.846ZM119.85002 306.58713L120.71181 305.9021Q121.20899 306.75284 121.087456 307.62567Q120.96592 308.4985 120.203575 309.26086Q119.24235 310.2221 118.071205 310.19998Q116.91111 310.16684 115.8394 309.09515Q114.73454 307.9903 114.7014 306.8081Q114.6572 305.61484 115.56319 304.70886Q116.44707 303.82498 117.596115 303.86917Q118.75622 303.9023 119.85002 304.99612Q119.91631 305.0624 120.0489 305.195L116.76748 308.4764Q117.54087 309.16144 118.292175 309.18353Q119.032425 309.19458 119.584854 308.64215Q119.99365 308.23337 120.07099 307.73618Q120.14833 307.2169 119.85002 306.58713ZM116.204 307.82455L118.65678 305.3718Q118.04911 304.8525 117.54087 304.80832Q116.74538 304.742 116.1819 305.30548Q115.66262 305.82477 115.65157 306.52084Q115.65157 307.20584 116.204 307.82455ZM121.59569 305.0403L122.21441 304.20062Q122.72264 304.5763 123.23087 304.5321Q123.75015 304.47684 124.26944 303.95758Q124.77767 303.44934 124.82186 303.0074Q124.86606 302.54337 124.5788 302.2561Q124.32468 302.00198 123.960075 302.0793Q123.70596 302.13455 122.94361 302.58755Q121.9161 303.19522 121.45206 303.372Q120.98802 303.52667 120.55713 303.42725Q120.126236 303.3278 119.79478 302.99634Q119.507515 302.70908 119.38598 302.3224Q119.26445 301.9357 119.33074 301.53793Q119.38598 301.23962 119.5959 300.85294Q119.805824 300.46622 120.15938 300.11267Q120.66761 299.60443 121.20899 299.37244Q121.75037 299.11832 122.192314 299.1846Q122.634254 299.2509 123.12039 299.60443L122.49062 300.43307Q122.114975 300.1458 121.68408 300.20105Q121.25318 300.23422 120.81124 300.67615Q120.30301 301.1844 120.25882 301.58212Q120.203575 301.96884 120.43559 302.20084Q120.57922 302.34448 120.7781 302.36658Q120.99907 302.38867 121.26424 302.2782Q121.418915 302.21188 122.114975 301.8031Q123.13144 301.22858 123.57338 301.0518Q124.01532 300.87503 124.44621 300.95236Q124.877106 301.0297 125.26381 301.4164Q125.63946 301.79205 125.74994 302.34448Q125.86043 302.87482 125.63946 303.47144Q125.40744 304.057 124.88815 304.5763Q124.02637 305.43808 123.219826 305.5375Q122.413284 305.61484 121.59569 305.0403ZM126.54544 300.09058L127.164154 299.2509Q127.672386 299.62653 128.18062 299.58234Q128.6999 299.5271 129.2192 299.0078Q129.72742 298.49957 129.7716 298.05765Q129.81581 297.5936 129.52855 297.30634Q129.27443 297.05222 128.90982 297.12958Q128.65572 297.1848 127.89336 297.6378Q126.865845 298.24548 126.40181 298.42224Q125.93777 298.57693 125.506874 298.47748Q125.07598 298.37805 124.74452 298.0466Q124.45726 297.75934 124.33573 297.37265Q124.214195 296.98593 124.28049 296.5882Q124.33573 296.2899 124.545654 295.90317Q124.75558 295.51648 125.10912 295.16293Q125.61736 294.6547 126.15874 294.42267Q126.70012 294.16855 127.14206 294.23486Q127.584 294.30115 128.07013 294.6547L127.44037 295.48334Q127.06472 295.19608 126.63383 295.2513Q126.202934 295.28445 125.760994 295.7264Q125.252754 296.23465 125.208565 296.6324Q125.15332 297.01907 125.38534 297.2511Q125.52897 297.39474 125.727844 297.41684Q125.948814 297.43893 126.21398 297.32843Q126.36866 297.26215 127.06472 296.85336Q128.08119 296.27884 128.52313 296.10205Q128.96507 295.92526 129.39597 296.00262Q129.82686 296.07996 130.21355 296.46664Q130.5892 296.84232 130.69969 297.39474Q130.81018 297.92505 130.5892 298.5217Q130.35718 299.10727 129.8379 299.62653Q128.97612 300.4883 128.16957 300.58777Q127.36303 300.6651 126.54544 300.09058ZM134.69926 291.73788L135.56105 291.05286Q136.05823 291.9036 135.9367 292.77643Q135.81517 293.6493 135.05281 294.41162Q134.0916 295.37286 132.92044 295.35074Q131.76035 295.3176 130.68864 294.2459Q129.58379 293.14105 129.55064 291.95886Q129.50645 290.7656 130.41243 289.85962Q131.29631 288.97574 132.44536 289.01993Q133.60545 289.05307 134.69926 290.14688Q134.76555 290.21317 134.89813 290.34576L131.61671 293.62717Q132.39012 294.3122 133.14142 294.3343Q133.88167 294.34534 134.4341 293.7929Q134.8429 293.38412 134.92023 292.88693Q134.99757 292.36765 134.69926 291.73788ZM131.05324 292.9753L133.50603 290.52255Q132.89835 290.00327 132.39012 289.95908Q131.59462 289.89276 131.03114 290.45624Q130.51187 290.97552 130.50081 291.6716Q130.50081 292.3566 131.05324 292.9753ZM140.30087 288.9647L134.22418 282.888L135.01967 282.0925L137.51665 284.58948L140.67653 281.4296L138.17955 278.93262L138.9861 278.12607L145.06279 284.20276L144.25626 285.0093L141.39468 282.14774L138.2348 285.30762L141.09637 288.1692L140.30087 288.9647ZM148.87454 279.30826Q148.80826 280.08167 148.56519 280.612Q148.33316 281.1313 147.89122 281.5732Q147.16202 282.30243 146.42177 282.33557Q145.68152 282.3687 145.12909 281.81628Q144.80869 281.49588 144.68715 281.0871Q144.55457 280.66724 144.64294 280.2695Q144.72029 279.8607 144.94127 279.48505Q145.0849 279.20883 145.48264 278.7006Q146.27814 277.70624 146.55435 277.12067Q146.39967 276.96597 146.36653 276.93283Q145.90248 276.46878 145.50475 276.49088Q144.97441 276.5351 144.41093 277.09857Q143.89165 277.61783 143.82536 278.05978Q143.74802 278.49066 144.09053 279.07626L143.26189 279.70602Q142.89728 279.14255 142.84204 278.62326Q142.78679 278.10397 143.063 277.5184Q143.33922 276.93283 143.9027 276.36935Q144.46617 275.80588 144.95232 275.5849Q145.43845 275.36395 145.80305 275.3971Q146.16765 275.43024 146.5433 275.6733Q146.76427 275.82797 147.26146 276.32516L148.25583 277.31952Q149.29439 278.3581 149.61479 278.59012Q149.94626 278.8111 150.344 278.92157L149.55956 279.70602Q149.21704 279.58447 148.87454 279.30826ZM147.13992 277.70624Q146.89685 278.28076 146.21184 279.20883Q145.8141 279.73917 145.71466 280.01538Q145.60417 280.28055 145.64838 280.54572Q145.70361 280.79984 145.90248 280.9987Q146.20079 281.297 146.62064 281.2749Q147.05153 281.24176 147.48242 280.81088Q147.91331 280.37997 148.05695 279.8607Q148.21162 279.33035 148.03485 278.84424Q147.90227 278.46857 147.41614 277.98245L147.13992 277.70624ZM154.37672 274.88885L153.72485 274.237Q153.95688 275.50757 153.07298 276.39145Q152.6863 276.77814 152.20015 276.97702Q151.71402 277.1538 151.32732 277.09857Q150.92957 277.03226 150.53183 276.7671Q150.27771 276.60138 149.79158 276.11523L147.07362 273.3973L147.82494 272.646L150.26666 275.08774Q150.84119 275.66226 151.0953 275.82797Q151.44885 276.04895 151.8466 276.00476Q152.24435 275.93848 152.58685 275.59595Q152.9183 275.2645 153.03984 274.81152Q153.16138 274.33643 152.9846 273.91656Q152.81888 273.4857 152.2554 272.9222L149.90205 270.56888L150.6423 269.8286L155.03963 274.22595L154.37672 274.88885ZM156.66377 273.331L157.50346 272.71228Q157.8791 272.99954 158.24371 272.9443Q158.72984 272.87802 159.20493 272.40292Q159.72421 271.88364 159.79051 271.39752Q159.86784 270.90033 159.60268 270.43628Q159.43695 270.13797 158.6967 269.41983Q158.78508 270.48047 158.05588 271.2097Q157.1499 272.11566 156.00085 271.961Q154.84076 271.79526 153.93478 270.88928Q153.30501 270.25952 152.99565 269.5082Q152.6863 268.7348 152.82993 268.01666Q152.97356 267.2985 153.55913 266.71292Q154.34357 265.92847 155.48157 266.05002L154.95125 265.51968L155.63625 264.8347L159.43695 268.63538Q160.46446 269.6629 160.68544 270.3037Q160.9064 270.94452 160.69649 271.64056Q160.4976 272.3477 159.8347 273.0106Q159.05025 273.79504 158.21056 273.9276Q157.37088 274.0602 156.66377 273.331ZM154.64188 270.0717Q155.50368 270.93347 156.24393 270.9887Q156.98418 271.04395 157.50346 270.5247Q158.02274 270.0054 157.9675 269.26514Q157.9233 268.51385 157.08362 267.67416Q156.27707 266.8676 155.50368 266.82343Q154.74132 266.76816 154.2331 267.2764Q153.7359 267.7736 153.79115 268.53595Q153.84639 269.27618 154.64188 270.0717Z" fill-rule="nonzero"/><path fill="#000000" d="M193.81866 299.62653L187.74197 293.54984L188.9573 292.3345L194.69151 295.19608Q195.49805 295.60486 195.88475 295.8148Q195.65273 295.3839 195.23288 294.52213L192.4597 288.83212L193.54245 287.74936L199.61916 293.82605L198.84576 294.59946L193.76343 289.51712L197.07799 296.36722L196.34879 297.09644L189.42136 293.68243L194.59207 298.85315L193.81866 299.62653ZM202.44759 289.91486Q202.38129 290.68826 202.13823 291.2186Q201.9062 291.73788 201.46426 292.1798Q200.73506 292.90903 199.99481 292.94217Q199.25455 292.9753 198.70213 292.42288Q198.38171 292.10248 198.2602 291.6937Q198.12761 291.27383 198.21599 290.8761Q198.29333 290.4673 198.5143 290.09164Q198.65793 289.81543 199.05568 289.3072Q199.85118 288.31284 200.1274 287.72726Q199.97272 287.57257 199.93956 287.53943Q199.47552 287.07538 199.07777 287.0975Q198.54745 287.1417 197.98398 287.70517Q197.46469 288.22446 197.39839 288.66638Q197.32106 289.0973 197.66356 289.68286L196.83493 290.31262Q196.47032 289.74915 196.41508 289.22986Q196.35983 288.71057 196.63605 288.125Q196.91226 287.53943 197.47574 286.97595Q198.03922 286.41248 198.52534 286.1915Q199.01149 285.97055 199.37608 286.0037Q199.74069 286.03683 200.11635 286.2799Q200.33731 286.43457 200.8345 286.93176L201.82886 287.92612Q202.86743 288.9647 203.18784 289.19672Q203.51929 289.4177 203.91704 289.52817L203.1326 290.31262Q202.79008 290.19107 202.44759 289.91486ZM200.71297 288.31284Q200.4699 288.88736 199.78488 289.81543Q199.38713 290.34576 199.2877 290.62198Q199.17722 290.88715 199.2214 291.1523Q199.27666 291.40643 199.47552 291.6053Q199.77383 291.9036 200.19368 291.8815Q200.62457 291.84836 201.05547 291.41748Q201.48636 290.98657 201.62999 290.4673Q201.78467 289.93698 201.6079 289.45084Q201.47531 289.07516 200.98918 288.58905L200.71297 288.31284ZM206.02731 286.09207L206.78966 286.63345Q206.53554 287.02014 206.29248 287.2632Q205.88368 287.67203 205.54117 287.77145Q205.18762 287.85983 204.87827 287.74936Q204.57996 287.6278 203.90599 286.95386L201.37587 284.42374L200.8345 284.96512L200.25998 284.3906L200.80135 283.8492L199.70755 282.7554L200.00586 281.5732L201.5416 283.10898L202.29291 282.35767L202.86743 282.9322L202.11613 283.6835L204.69044 286.2578Q205.01085 286.57822 205.13239 286.63345Q205.26497 286.67764 205.4086 286.6445Q205.55223 286.61136 205.71796 286.44562Q205.85054 286.31305 206.02731 286.09207ZM208.14864 283.97076L208.91098 284.51215Q208.65686 284.89883 208.4138 285.1419Q208.005 285.5507 207.66249 285.65012Q207.30894 285.73853 206.99959 285.62802Q206.70128 285.5065 206.02731 284.83255L203.4972 282.30243L202.95581 282.8438L202.38129 282.2693L202.92267 281.7279L201.82886 280.6341L202.12718 279.4519L203.66292 280.98764L204.41423 280.23636L204.98875 280.81088L204.23744 281.56216L206.81175 284.13647Q207.13217 284.45688 207.2537 284.51215Q207.38628 284.55634 207.5299 284.5232Q207.67354 284.49002 207.83928 284.3243Q207.97185 284.1917 208.14864 283.97076ZM209.30873 284.13647L203.23203 278.05978L203.97229 277.31952L206.14885 279.4961Q206.0715 278.3802 206.867 277.5847Q207.36418 277.08752 207.91661 276.93283Q208.46904 276.75604 208.96622 276.94388Q209.45236 277.12067 210.10422 277.77252L212.88846 280.55676L212.14821 281.297L209.36397 278.5128Q208.80049 277.9493 208.30331 277.93826Q207.80612 277.9272 207.36418 278.36914Q207.03273 278.7006 206.9112 279.1757Q206.78966 279.62866 206.95538 280.05957Q207.12112 280.46835 207.6404 280.98764L210.04898 283.39624L209.30873 284.13647ZM215.84947 274.7673L216.71126 274.0823Q217.20844 274.93304 217.0869 275.80588Q216.96536 276.6787 216.20302 277.44107Q215.24179 278.40228 214.07065 278.3802Q212.91055 278.34705 211.83885 277.27533Q210.734 276.17047 210.70085 274.98828Q210.65665 273.79504 211.56264 272.88907Q212.44652 272.0052 213.59557 272.04938Q214.75566 272.08252 215.84947 273.17633Q215.91576 273.2426 216.04834 273.3752L212.76692 276.65662Q213.54031 277.3416 214.29163 277.3637Q215.03188 277.3748 215.5843 276.82236Q215.9931 276.41354 216.07043 275.91635Q216.14778 275.3971 215.84947 274.7673ZM212.20345 276.00476L214.65622 273.55197Q214.04855 273.03268 213.54031 272.9885Q212.74483 272.9222 212.18135 273.4857Q211.66206 274.00497 211.65102 274.70102Q211.65102 275.38605 212.20345 276.00476ZM220.01477 273.43045L214.26953 270.38104L215.04292 269.60764L218.28015 271.45276L219.48444 272.1267Q219.44025 272.03833 218.81047 270.9887L216.93222 267.71835L217.69458 266.956L220.9097 268.8453L221.97035 269.46402L221.37373 268.35916L219.58388 265.06668L220.31308 264.3375L223.32933 270.11588L222.55594 270.88928L219.21927 268.94473L218.30225 268.38126L220.79921 272.646L220.01477 273.43045Z" fill-rule="nonzero"/><path fill="#000000" d="M260.82672 296.79813L254.75003 290.72144L255.96536 289.50607L261.69955 292.36765Q262.5061 292.77646 262.8928 292.9864Q262.6608 292.55548 262.24094 291.6937L259.46774 286.0037L260.5505 284.92093L266.62723 290.99765L265.85382 291.77103L260.77148 286.6887L264.08606 293.5388L263.35684 294.268L256.4294 290.854L261.60013 296.02472L260.82672 296.79813ZM261.9095 285.28555L261.0477 284.42377L261.799 283.67245L262.6608 284.53424L261.9095 285.28555ZM267.1244 290.50046L262.72708 286.10312L263.4784 285.35184L267.8757 289.74915L267.1244 290.50046ZM270.20694 286.09207L270.9693 286.63345Q270.71518 287.02017 270.4721 287.2632Q270.06332 287.67203 269.7208 287.77145Q269.36725 287.85986 269.0579 287.74936Q268.75958 287.62784 268.08563 286.95386L265.5555 284.42377L265.01413 284.96512L264.4396 284.3906L264.981 283.84924L263.88718 282.75543L264.1855 281.57324L265.72122 283.10898L266.47253 282.35767L267.04706 282.9322L266.29575 283.6835L268.87006 286.2578Q269.1905 286.57822 269.312 286.63345Q269.44458 286.67764 269.58823 286.6445Q269.73184 286.61136 269.89758 286.44565Q270.03015 286.31305 270.20694 286.09207ZM272.6266 281.7721L273.4552 281.14233Q274.085 282.01517 274.01868 282.94324Q273.9524 283.87134 273.23425 284.58948Q272.32828 285.49545 271.19028 285.4623Q270.05228 285.40707 268.94742 284.30222Q268.2403 283.59512 267.942 282.83276Q267.64368 282.0483 267.8536 281.30807Q268.0746 280.55676 268.6491 279.98224Q269.3562 279.27515 270.1738 279.18674Q270.9914 279.07626 271.79794 279.61765L271.1792 280.45734Q270.63785 280.1148 270.1517 280.15903Q269.6545 280.19217 269.27887 280.5678Q268.7154 281.1313 268.77063 281.89365Q268.81482 282.64493 269.68765 283.51776Q270.58258 284.4127 271.32285 284.46796Q272.0631 284.5232 272.60446 283.9818Q273.04642 283.53986 273.0685 282.98746Q273.10165 282.42398 272.6266 281.7721ZM275.60968 282.01517L269.533 275.93848L270.27322 275.1982L272.4498 277.3748Q272.37247 276.25888 273.16794 275.46338Q273.66513 274.9662 274.21756 274.81152Q274.77 274.63474 275.26718 274.82257Q275.7533 274.99936 276.40518 275.6512L279.18942 278.43546L278.44916 279.1757L275.66492 276.39145Q275.10144 275.82797 274.60425 275.81693Q274.1071 275.80588 273.66513 276.24783Q273.33368 276.57928 273.21216 277.05438Q273.0906 277.50735 273.25635 277.93826Q273.42206 278.34705 273.94135 278.86633L276.34995 281.27493L275.60968 282.01517ZM282.15042 272.646L283.0122 271.961Q283.5094 272.81174 283.38785 273.68457Q283.26633 274.5574 282.50397 275.31976Q281.54276 276.28098 280.3716 276.25888Q279.21152 276.22574 278.1398 275.15402Q277.03494 274.04916 277.0018 272.86697Q276.9576 271.67374 277.8636 270.76776Q278.74747 269.88388 279.8965 269.92807Q281.0566 269.9612 282.15042 271.05502Q282.2167 271.1213 282.3493 271.25388L279.06787 274.5353Q279.84128 275.2203 280.59256 275.2424Q281.33282 275.25345 281.88525 274.70105Q282.29404 274.29224 282.3714 273.79504Q282.44873 273.2758 282.15042 272.646ZM278.5044 273.88345L280.95718 271.43066Q280.34952 270.91138 279.84128 270.8672Q279.04578 270.8009 278.4823 271.36438Q277.963 271.88367 277.95197 272.5797Q277.95197 273.2647 278.5044 273.88345ZM285.4871 272.1378L279.41037 266.06107L280.16168 265.30978L286.23837 271.38647L285.4871 272.1378ZM287.6084 270.01645L281.5317 263.93976L282.283 263.18845L288.3597 269.26514L287.6084 270.01645Z" fill-rule="nonzero"/><path fill="#000000" d="M310.5991 309.90167Q311.54926 309.7249 312.19006 309.43765L312.5215 310.23312Q311.6266 310.64194 310.4665 310.78555Q310.16818 311.83517 309.3506 312.65277Q308.52194 313.4814 307.45026 313.75763Q306.3896 314.0228 305.30682 313.66925Q304.22406 313.31567 303.31808 312.4097Q302.42316 311.51477 302.04752 310.4099Q301.67184 309.30505 301.9591 308.24442Q302.24637 307.18375 303.075 306.3551Q303.9147 305.5154 304.99747 305.25024Q306.08023 304.96298 307.15195 305.32758Q308.22363 305.6922 309.12964 306.59818Q309.88092 307.34946 310.2455 308.1781Q310.6212 308.9957 310.5991 309.90167ZM307.8038 310.64194Q308.69873 310.14474 309.53842 310.07846Q309.59366 308.71948 308.301 307.42682Q307.56073 306.68655 306.75418 306.38824Q305.94763 306.08994 305.1632 306.27777Q304.37875 306.44348 303.78214 307.0401Q302.87616 307.94608 302.89825 309.16144Q302.92035 310.35468 304.14673 311.58105Q305.32892 312.76324 306.55533 312.8185Q307.77066 312.8627 308.68768 311.94565Q309.11856 311.51477 309.3285 310.9734Q308.70978 311.106 308.1905 311.4264L307.8038 310.64194ZM315.80295 306.00156L315.1511 305.34967Q315.3831 306.62027 314.4992 307.50415Q314.11252 307.89084 313.62637 308.08972Q313.14026 308.2665 312.75354 308.21124Q312.3558 308.14496 311.95804 307.8798Q311.70395 307.71408 311.2178 307.22794L308.49985 304.50998L309.25116 303.7587L311.69287 306.2004Q312.26743 306.77493 312.5215 306.94067Q312.8751 307.16165 313.27283 307.11746Q313.67056 307.05115 314.0131 306.70865Q314.34454 306.3772 314.46606 305.9242Q314.58762 305.44913 314.41083 305.02927Q314.2451 304.5984 313.6816 304.0349L311.32828 301.68158L312.06854 300.9413L316.46585 305.33862L315.80295 306.00156ZM320.20026 300.52148Q320.13397 301.29486 319.8909 301.8252Q319.65887 302.34448 319.21695 302.7864Q318.48773 303.51562 317.7475 303.54877Q317.00723 303.5819 316.4548 303.02948Q316.1344 302.70908 316.01288 302.3003Q315.88028 301.88043 315.96866 301.4827Q316.04602 301.07388 316.267 300.69824Q316.4106 300.42203 316.80835 299.9138Q317.60385 298.91943 317.88007 298.33386Q317.7254 298.17917 317.69223 298.14603Q317.2282 297.682 316.83044 297.7041Q316.30014 297.7483 315.73666 298.31177Q315.21738 298.83105 315.1511 299.27298Q315.07373 299.7039 315.41626 300.28946L314.58762 300.91922Q314.223 300.35574 314.16776 299.83646Q314.11252 299.31717 314.38873 298.7316Q314.66495 298.14603 315.22842 297.58255Q315.7919 297.01907 316.27805 296.7981Q316.76416 296.57715 317.12878 296.6103Q317.49338 296.64343 317.86902 296.8865Q318.09 297.04117 318.5872 297.53836L319.58154 298.53275Q320.62012 299.5713 320.94052 299.8033Q321.27197 300.0243 321.6697 300.13477L320.88528 300.91922Q320.54276 300.79767 320.20026 300.52148ZM318.46564 298.91943Q318.22256 299.49396 317.53757 300.42203Q317.13983 300.95236 317.04037 301.22858Q316.9299 301.49374 316.9741 301.7589Q317.02933 302.01303 317.2282 302.21188Q317.52652 302.5102 317.94635 302.4881Q318.37726 302.45496 318.80814 302.02408Q319.23904 301.59317 319.38266 301.07388Q319.53735 300.54358 319.36057 300.05743Q319.228 299.6818 318.74185 299.19565L318.46564 298.91943ZM322.81876 298.98572L318.42145 294.5884L319.08435 293.92548L319.7031 294.54422Q319.47107 293.3399 320.3881 292.42288Q320.78583 292.02515 321.26093 291.8373Q321.74707 291.63843 322.1448 291.70474Q322.54254 291.77103 322.9182 292.0141Q323.1613 292.19086 323.68054 292.71014L326.38745 295.41705L325.6472 296.1573L322.97345 293.48355Q322.5094 293.0195 322.20004 292.88693Q321.8907 292.75433 321.53714 292.84274Q321.17255 292.92007 320.87424 293.21838Q320.39914 293.69348 320.35495 294.35638Q320.31076 294.9972 321.15045 295.83688L323.55902 298.24548L322.81876 298.98572ZM333.10495 292.27927Q331.7018 292.11353 330.23233 291.50586Q328.76288 290.8761 327.64697 289.7602Q326.66367 288.77686 326.06705 287.56152Q325.39307 286.13626 325.13898 284.31326L325.66928 283.78293Q326.0339 285.1419 326.23276 285.67224Q326.5532 286.50085 327.02826 287.2632Q327.62488 288.21338 328.40933 288.99783Q330.40912 290.99762 333.63528 291.74893L333.10495 292.27927ZM334.35345 287.45105L328.9949 282.0925L326.99512 284.0923L326.27698 283.3741L331.09412 278.55698L331.8123 279.27512L329.80145 281.28595L335.16 286.6445L334.35345 287.45105ZM335.19315 282.21402Q333.96674 280.98764 334.05515 279.72812Q334.13248 278.6785 334.95007 277.8609Q335.85605 276.95493 337.0272 276.97702Q338.19833 276.97702 339.24796 278.02664Q340.0987 278.87738 340.33072 279.6176Q340.56274 280.35788 340.34177 281.1313Q340.1208 281.88257 339.54626 282.4571Q338.62924 283.3741 337.46915 283.36307Q336.30905 283.32993 335.19315 282.21402ZM335.95547 281.4517Q336.79517 282.29138 337.57962 282.34662Q338.37512 282.3908 338.92755 281.83838Q339.49103 281.2749 339.4358 280.49045Q339.38052 279.70602 338.51874 278.84424Q337.70117 278.02664 336.90567 277.98245Q336.12122 277.9272 335.5688 278.4796Q335.01636 279.03204 335.06055 279.82755Q335.10474 280.60095 335.95547 281.4517ZM342.61777 279.18674L338.22043 274.7894L338.88336 274.1265L339.50208 274.7452Q339.27005 273.54092 340.18707 272.6239Q340.58484 272.22614 341.0599 272.03833Q341.54605 271.83945 341.9438 271.90573Q342.34155 271.97205 342.7172 272.2151Q342.96027 272.39188 343.47955 272.91116L346.18643 275.61804L345.4462 276.3583L342.77243 273.68457Q342.3084 273.22052 341.99905 273.08792Q341.68967 272.95535 341.33612 273.04373Q340.97153 273.1211 340.67322 273.4194Q340.19812 273.89447 340.15393 274.5574Q340.10974 275.1982 340.94943 276.0379L343.358 278.44647L342.61777 279.18674ZM349.2248 275.96057L348.44034 275.35287Q348.7497 275.17612 348.93753 274.98828Q349.1806 274.7452 349.23584 274.51318Q349.31317 274.2812 349.26898 274.03812Q349.21375 273.85028 348.93753 273.2426Q348.89334 273.17633 348.82703 272.99954L342.7393 270.27057L343.54584 269.46402L347.00403 271.08813Q347.66693 271.39752 348.35196 271.79526Q347.96524 271.1434 347.65588 270.48047L346.03177 266.9781L346.772 266.23785L349.57834 272.38083Q350.0203 273.37518 350.15286 273.79504Q350.32965 274.36957 350.2302 274.80045Q350.15286 275.23135 349.79932 275.5849Q349.5894 275.79483 349.2248 275.96057ZM353.37903 272.0052L352.84872 272.53552Q352.0974 269.30933 350.09763 267.30954Q349.32422 266.53616 348.37405 265.9395Q347.6117 265.46445 346.78305 265.14404Q346.25272 264.94516 344.88272 264.56952L345.41306 264.03918Q347.225 264.30435 348.65027 264.9783Q349.87665 265.56387 350.86 266.5472Q351.97586 267.6631 352.5946 269.14362Q353.20227 270.61307 353.37903 272.0052Z" fill-rule="nonzero"/><path fill="#000000" d="M371.9503 312.73013Q372.90045 312.55334 373.54126 312.26608L373.87274 313.06158Q372.97778 313.47037 371.8177 313.614Q371.51938 314.6636 370.7018 315.4812Q369.87317 316.30984 368.80145 316.58606Q367.74078 316.85123 366.65802 316.49768Q365.5753 316.14413 364.66928 315.23813Q363.77435 314.3432 363.3987 313.23834Q363.02307 312.13348 363.31033 311.07285Q363.5976 310.01218 364.42624 309.18353Q365.26593 308.34384 366.34866 308.07867Q367.43143 307.7914 368.50314 308.15604Q369.57486 308.52063 370.48083 309.4266Q371.23212 310.17792 371.59674 311.00656Q371.97238 311.82413 371.9503 312.73013ZM369.155 313.47037Q370.04993 312.97318 370.88962 312.9069Q370.94485 311.5479 369.6522 310.25525Q368.91193 309.51498 368.10538 309.21667Q367.29886 308.91837 366.5144 309.1062Q365.72995 309.2719 365.13333 309.86856Q364.22736 310.77454 364.24945 311.98987Q364.27155 313.1831 365.49792 314.4095Q366.6801 315.5917 367.90652 315.64694Q369.12186 315.69113 370.03888 314.7741Q370.4698 314.3432 370.6797 313.80182Q370.06097 313.93442 369.5417 314.25482L369.155 313.47037ZM377.15414 308.83L376.5023 308.17813Q376.7343 309.4487 375.85043 310.33258Q375.4637 310.7193 374.97757 310.91815Q374.49146 311.09494 374.10474 311.0397Q373.707 310.9734 373.30927 310.70822Q373.05515 310.5425 372.569 310.05637L369.85107 307.33844L370.60236 306.58713L373.0441 309.02887Q373.61862 309.6034 373.87274 309.7691Q374.2263 309.99008 374.62402 309.9459Q375.0218 309.8796 375.3643 309.53708Q375.69574 309.20563 375.81726 308.75266Q375.9388 308.27756 375.76202 307.85773Q375.5963 307.42682 375.03284 306.86334L372.67947 304.51L373.41974 303.76974L377.81705 308.16708L377.15414 308.83ZM374.0053 301.54898L373.14352 300.6872L373.89484 299.9359L374.75662 300.7977L374.0053 301.54898ZM379.2202 306.76392L374.8229 302.36658L375.57422 301.6153L379.97153 306.0126L379.2202 306.76392ZM381.34155 304.64258L376.9442 300.24527L377.60715 299.58237L378.22586 300.20108Q377.99384 298.99677 378.91086 298.07974Q379.30862 297.682 379.7837 297.49417Q380.26984 297.29532 380.66757 297.3616Q381.06534 297.4279 381.44098 297.67096Q381.68405 297.84772 382.20334 298.367L384.91022 301.0739L384.16998 301.81415L381.49622 299.1404Q381.0322 298.67636 380.72284 298.5438Q380.41348 298.4112 380.0599 298.4996Q379.6953 298.57693 379.397 298.87524Q378.9219 299.35034 378.87772 300.01324Q378.83353 300.65405 379.67322 301.49374L382.0818 303.90234L381.34155 304.64258ZM386.2913 299.69284L381.89398 295.29553L382.5569 294.6326L383.1756 295.2513Q382.94357 294.04703 383.86063 293.13Q384.25836 292.73227 384.73346 292.54443Q385.21957 292.34555 385.61734 292.41183Q386.01508 292.47815 386.39072 292.72122Q386.6338 292.89798 387.15308 293.41727L389.86 296.12415L389.11972 296.8644L386.44598 294.19067Q385.98193 293.72662 385.67258 293.59406Q385.36322 293.46146 385.00967 293.54984Q384.64505 293.6272 384.34674 293.9255Q383.87167 294.40057 383.82745 295.0635Q383.78326 295.7043 384.62296 296.544L387.03156 298.95258L386.2913 299.69284ZM393.4176 292.56653L387.3409 286.48984L389.62796 284.2028Q390.324 283.5067 390.93167 283.2747Q391.53934 283.0427 392.15808 283.19736Q392.7768 283.32996 393.19662 283.7498Q393.58334 284.13647 393.7159 284.6889Q393.8485 285.24133 393.62753 285.88217Q394.34567 285.49545 395.0307 285.60596Q395.7157 285.69434 396.24603 286.22467Q396.66586 286.6445 396.86475 287.19693Q397.05258 287.7383 396.9863 288.20236Q396.91998 288.66638 396.61063 289.17462Q396.31232 289.6718 395.7378 290.24634L393.4176 292.56653ZM390.69968 288.2355L392.01443 286.92072Q392.54477 286.39038 392.7105 286.09207Q392.93146 285.69434 392.87622 285.32974Q392.80994 284.95407 392.48953 284.63367Q392.19122 284.33536 391.81555 284.24698Q391.4399 284.1586 391.08636 284.35745Q390.73282 284.53424 390.08093 285.1861L388.8656 286.40143L390.69968 288.2355ZM393.50598 291.04184L395.01965 289.52817Q395.40634 289.14148 395.52786 288.95364Q395.77094 288.6222 395.83725 288.33493Q395.90353 288.02557 395.80408 287.68307Q395.70465 287.34058 395.4174 287.0533Q395.0749 286.7108 394.64398 286.63345Q394.22415 286.54507 393.81534 286.755Q393.40656 286.9649 392.82098 287.55048L391.41782 288.95364L393.50598 291.04184ZM399.00818 286.97595L394.61084 282.57864L395.28482 281.9047L395.94772 282.5676Q395.7378 281.84943 395.80408 281.49588Q395.8704 281.12024 396.13556 280.85507Q396.5112 280.47943 397.1299 280.32474L397.57187 281.2749Q397.1299 281.3854 396.86475 281.65057Q396.61063 281.9047 396.56644 282.25824Q396.52225 282.5897 396.71008 282.9322Q396.97522 283.46252 397.43927 283.92657L399.7484 286.23572L399.00818 286.97595ZM399.37277 282.21405Q398.1464 280.98764 398.23477 279.72812Q398.3121 278.6785 399.1297 277.86093Q400.03568 276.95493 401.20682 276.97702Q402.37796 276.97702 403.42758 278.02664Q404.27832 278.87738 404.51035 279.61765Q404.74237 280.35788 404.5214 281.1313Q404.3004 281.8826 403.7259 282.45712Q402.80887 283.37415 401.64877 283.3631Q400.48868 283.32996 399.37277 282.21405ZM400.13513 281.4517Q400.9748 282.29138 401.75925 282.34662Q402.55475 282.3908 403.10718 281.83838Q403.67065 281.2749 403.61542 280.49048Q403.56018 279.70602 402.6984 278.84424Q401.8808 278.02664 401.0853 277.98245Q400.30084 277.92722 399.7484 278.47964Q399.19598 279.03207 399.24017 279.82755Q399.2844 280.60095 400.13513 281.4517ZM407.60394 278.3802L401.8587 275.3308L402.63208 274.5574L405.86932 276.4025L407.0736 277.07648Q407.02942 276.98807 406.39963 275.93848L404.5214 272.6681L405.28375 271.90576L408.49887 273.79504L409.55954 274.41376L408.9629 273.30893L407.17303 270.01645L407.90225 269.28726L410.9185 275.06564L410.1451 275.83902L406.80844 273.8945L405.89142 273.33102L408.38837 277.59576L407.60394 278.3802ZM413.16135 272.82278L408.76404 268.42545L409.42694 267.76254L410.04565 268.38126Q409.81363 267.17697 410.73068 266.25995Q411.12842 265.8622 411.60352 265.67438Q412.08963 265.4755 412.4874 265.54178Q412.88513 265.6081 413.26077 265.85114Q413.50385 266.02792 414.02313 266.5472L416.73004 269.2541L415.98978 269.99435L413.31604 267.32062Q412.852 266.85657 412.54263 266.724Q412.23328 266.5914 411.87973 266.67978Q411.5151 266.75714 411.2168 267.05545Q410.74173 267.53052 410.69754 268.19345Q410.65332 268.83426 411.493 269.67395L413.9016 272.08252L413.16135 272.82278Z" fill-rule="nonzero"/><path fill="#000000" d="M429.4787 320.68506L424.12018 315.3265L422.1204 317.3263L421.40222 316.60815L426.2194 311.791L426.93756 312.50912L424.92673 314.51996L430.28525 319.8785L429.4787 320.68506ZM432.78223 317.38153L428.38492 312.98422L429.05887 312.31027L429.72177 312.97318Q429.51187 312.25504 429.57816 311.90146Q429.64444 311.52582 429.9096 311.26065Q430.28525 310.885 430.90396 310.73032L431.34592 311.6805Q430.90396 311.791 430.63882 312.05615Q430.3847 312.31027 430.34048 312.66382Q430.2963 312.99527 430.48413 313.33777Q430.7493 313.8681 431.21335 314.33215L433.5225 316.6413L432.78223 317.38153ZM437.95294 311.12808Q437.88666 311.90146 437.6436 312.4318Q437.41156 312.95108 436.96964 313.39304Q436.24042 314.12222 435.50018 314.15536Q434.75992 314.1885 434.2075 313.63608Q433.8871 313.31567 433.76553 312.9069Q433.63297 312.48703 433.72134 312.0893Q433.7987 311.6805 434.01965 311.30484Q434.1633 311.02863 434.56104 310.5204Q435.35654 309.52603 435.63275 308.94046Q435.47806 308.78577 435.44492 308.75262Q434.9809 308.2886 434.58313 308.3107Q434.0528 308.3549 433.48935 308.91837Q432.97006 309.43765 432.90375 309.87958Q432.82642 310.3105 433.1689 310.89606L432.34027 311.52582Q431.97568 310.96234 431.92044 310.44305Q431.8652 309.92377 432.14142 309.3382Q432.41763 308.75262 432.9811 308.18915Q433.5446 307.62567 434.0307 307.40472Q434.51685 307.18375 434.88144 307.2169Q435.24606 307.25003 435.6217 307.4931Q435.84268 307.64777 436.33984 308.14496L437.33423 309.13934Q438.3728 310.1779 438.6932 310.4099Q439.02466 310.6309 439.4224 310.74136L438.63797 311.52582Q438.29544 311.4043 437.95294 311.12808ZM436.21832 309.52603Q435.97525 310.10056 435.29025 311.02863Q434.8925 311.55896 434.79306 311.83517Q434.6826 312.10034 434.72678 312.3655Q434.782 312.61963 434.9809 312.81848Q435.2792 313.11682 435.69904 313.0947Q436.12994 313.06155 436.56082 312.63068Q436.99173 312.19977 437.13535 311.6805Q437.29004 311.15018 437.11325 310.66403Q436.98068 310.2884 436.49454 309.80225L436.21832 309.52603ZM440.57144 309.59232L436.17413 305.195L436.83704 304.53207L437.45575 305.15082Q437.22375 303.9465 438.14078 303.02948Q438.5385 302.63174 439.0136 302.4439Q439.49976 302.24503 439.8975 302.31134Q440.29523 302.37762 440.6709 302.6207Q440.91394 302.79745 441.43323 303.31674L444.14014 306.02365L443.39987 306.7639L440.72614 304.09015Q440.2621 303.6261 439.95273 303.49353Q439.64337 303.36093 439.28983 303.44934Q438.92523 303.52667 438.6269 303.82498Q438.15182 304.30008 438.10764 304.96298Q438.06345 305.6038 438.9031 306.44348L441.3117 308.85208L440.57144 309.59232ZM445.74216 305.15082L446.58185 304.53207Q446.95752 304.81934 447.3221 304.7641Q447.80826 304.6978 448.28333 304.22272Q448.8026 303.70346 448.8689 303.21732Q448.94626 302.72012 448.6811 302.2561Q448.51535 301.95776 447.77512 301.23962Q447.8635 302.3003 447.13428 303.02948Q446.2283 303.93546 445.07925 303.7808Q443.91916 303.61505 443.01318 302.70908Q442.38342 302.0793 442.07407 301.328Q441.76468 300.55463 441.90833 299.83646Q442.05194 299.11832 442.63754 298.5327Q443.42197 297.7483 444.55997 297.8698L444.02963 297.33948L444.71466 296.65448L448.51535 300.45517Q449.54288 301.4827 449.76382 302.1235Q449.9848 302.7643 449.7749 303.4604Q449.57602 304.16748 448.9131 304.8304Q448.12866 305.61484 447.28897 305.74744Q446.44928 305.88 445.74216 305.15082ZM443.72028 301.89148Q444.58206 302.75327 445.32233 302.8085Q446.0626 302.86377 446.58185 302.34448Q447.10114 301.8252 447.0459 301.08493Q447.0017 300.33365 446.16202 299.49396Q445.35547 298.6874 444.58206 298.64322Q443.81973 298.58798 443.3115 299.0962Q442.8143 299.59338 442.86954 300.35574Q442.9248 301.09598 443.72028 301.89148ZM452.68066 297.48312L446.60394 291.40643L447.42154 290.58884L455.38754 292.16876L450.61456 287.3958L451.38797 286.6224L457.46466 292.6991L456.63605 293.52774L448.67004 291.94778L453.443 296.72076L452.68066 297.48312ZM459.1772 291.7158L460.01688 291.09705Q460.39255 291.3843 460.75714 291.32907Q461.2433 291.2628 461.71835 290.7877Q462.23764 290.26843 462.30392 289.7823Q462.3813 289.2851 462.11612 288.82108Q461.95038 288.52274 461.21014 287.8046Q461.29852 288.86526 460.5693 289.59445Q459.66333 290.50043 458.51428 290.34576Q457.3542 290.18002 456.4482 289.27405Q455.81845 288.6443 455.5091 287.89297Q455.1997 287.1196 455.34335 286.40143Q455.48697 285.6833 456.07257 285.0977Q456.857 284.31326 457.995 284.43478L457.46466 283.90445L458.1497 283.21945L461.95038 287.02014Q462.9779 288.04767 463.19885 288.68848Q463.41983 289.32928 463.20993 290.02536Q463.01105 290.73245 462.34814 291.3954Q461.5637 292.1798 460.724 292.3124Q459.8843 292.44498 459.1772 291.7158ZM457.1553 288.45645Q458.0171 289.31824 458.75735 289.37347Q459.49762 289.42874 460.01688 288.90945Q460.53616 288.39017 460.48093 287.6499Q460.43674 286.89862 459.59705 286.05893Q458.7905 285.25238 458.0171 285.2082Q457.25476 285.15295 456.74652 285.66116Q456.24933 286.15836 456.30457 286.92072Q456.35983 287.66095 457.1553 288.45645ZM466.78964 283.3741L466.1378 282.72226Q466.3698 283.99286 465.4859 284.87674Q465.0992 285.26343 464.61307 285.4623Q464.12695 285.63907 463.74023 285.58383Q463.3425 285.51755 462.94476 285.25238Q462.69064 285.08664 462.2045 284.60052L459.48654 281.88257L460.23785 281.1313L462.6796 283.573Q463.25412 284.14752 463.50824 284.31326Q463.8618 284.5342 464.25952 284.49002Q464.6573 284.42374 464.9998 284.08124Q465.33124 283.7498 465.45276 283.29678Q465.5743 282.82172 465.39752 282.40186Q465.2318 281.97098 464.66833 281.4075L462.31497 279.05414L463.05524 278.3139L467.45255 282.7112L466.78964 283.3741ZM470.513 283.03162L469.72855 282.42395Q470.0379 282.24716 470.22574 282.05936Q470.4688 281.81628 470.52405 281.58426Q470.60138 281.35223 470.5572 281.1092Q470.50195 280.92136 470.22574 280.3137Q470.18155 280.24738 470.11526 280.07062L464.0275 277.3416L464.83405 276.53506L468.29224 278.1592Q468.95517 278.46857 469.64017 278.86633Q469.25348 278.21445 468.94412 277.55154L467.31998 274.04916L468.06024 273.3089L470.86655 279.4519Q471.3085 280.44626 471.44107 280.86612Q471.61786 281.44064 471.51843 281.87152Q471.44107 282.30243 471.08752 282.65598Q470.8776 282.8659 470.513 283.03162ZM473.98224 273.3531L474.84402 272.6681Q475.34122 273.51883 475.2197 274.39166Q475.09814 275.2645 474.3358 276.02686Q473.37457 276.98807 472.20343 276.96597Q471.04333 276.93283 469.97162 275.8611Q468.86676 274.75626 468.83362 273.57407Q468.78943 272.38083 469.6954 271.47485Q470.57928 270.59097 471.72833 270.63516Q472.88843 270.6683 473.98224 271.76212Q474.04852 271.8284 474.18112 271.96097L470.8997 275.2424Q471.6731 275.9274 472.4244 275.9495Q473.16464 275.96054 473.71707 275.40814Q474.1259 274.99933 474.20322 274.50214Q474.28055 273.98288 473.98224 273.3531ZM470.3362 274.59055L472.789 272.13776Q472.18134 271.61847 471.6731 271.57428Q470.8776 271.508 470.31412 272.07147Q469.79486 272.59076 469.7838 273.2868Q469.7838 273.97183 470.3362 274.59055ZM477.341 272.82278L472.9437 268.42545L473.6066 267.76254L474.2253 268.38126Q473.9933 267.17697 474.9103 266.25995Q475.30807 265.86218 475.78317 265.67435Q476.2693 265.4755 476.66705 265.54178Q477.0648 265.60806 477.44043 265.85114Q477.6835 266.02792 478.2028 266.5472L480.90967 269.2541L480.16943 269.99435L477.4957 267.3206Q477.03165 266.85657 476.7223 266.72397Q476.41293 266.5914 476.0594 266.67978Q475.69476 266.7571 475.39645 267.05542Q474.9214 267.53052 474.87717 268.19342Q474.83298 268.83426 475.67267 269.67392L478.08127 272.08252L477.341 272.82278Z" fill-rule="nonzero"/><path fill="#000000" d="M518.4955 295.84793L517.7442 295.09662L516.97076 288.09186Q516.89343 287.3516 516.8824 286.74393L513.4905 290.13583L512.77234 289.41766L517.1255 285.06454L517.8436 285.78268L518.6391 293.4062L518.7054 294.2017L522.58344 290.32364L523.30164 291.0418L518.4955 295.84793ZM526.17426 287.08643Q526.1079 287.85983 525.86487 288.39017Q525.6329 288.90942 525.1909 289.35138Q524.46173 290.0806 523.72144 290.11374Q522.9812 290.14688 522.4288 289.59445Q522.10834 289.27405 521.9868 288.86523Q521.85425 288.4454 521.9426 288.04764Q522.01996 287.63885 522.24097 287.2632Q522.3846 286.987 522.78235 286.47876Q523.5778 285.48438 523.854 284.8988Q523.69934 284.74414 523.6662 284.711Q523.20215 284.24695 522.80444 284.26904Q522.2741 284.31323 521.71063 284.8767Q521.19135 285.396 521.12506 285.83795Q521.0477 286.26883 521.3902 286.8544L520.5616 287.48416Q520.19696 286.9207 520.1417 286.40143Q520.0865 285.88214 520.3627 285.29657Q520.6389 284.711 521.2024 284.14752Q521.76587 283.58405 522.252 283.36307Q522.73816 283.1421 523.1027 283.17523Q523.46735 283.20837 523.84296 283.45145Q524.06396 283.60614 524.56116 284.10333L525.5555 285.0977Q526.59406 286.13626 526.9145 286.3683Q527.2459 286.58923 527.6437 286.69974L526.85925 287.48416Q526.5167 287.36264 526.17426 287.08643ZM524.43964 285.48438Q524.19653 286.0589 523.51154 286.987Q523.1138 287.51733 523.01434 287.79355Q522.9039 288.0587 522.94806 288.32385Q523.0033 288.57797 523.20215 288.77686Q523.5005 289.07516 523.92035 289.05307Q524.3512 289.01993 524.7821 288.58902Q525.213 288.15814 525.3566 287.63885Q525.5113 287.10852 525.33453 286.62238Q525.20197 286.24673 524.7158 285.7606L524.43964 285.48438ZM528.7927 285.5507L524.3954 281.15335L525.05835 280.49045L525.67706 281.10916Q525.445 279.90488 526.36206 278.98785Q526.7598 278.5901 527.23486 278.40228Q527.721 278.2034 528.1188 278.26968Q528.51654 278.33597 528.89215 278.57904Q529.13525 278.75583 529.65454 279.27512L532.3614 281.982L531.62115 282.72226L528.9474 280.0485Q528.4834 279.58447 528.174 279.45187Q527.8647 279.3193 527.5111 279.40768Q527.1465 279.48502 526.8482 279.78333Q526.3731 280.25842 526.3289 280.92133Q526.2847 281.56216 527.1244 282.40186L529.53296 284.81042L528.7927 285.5507ZM536.593 277.7504L536.0406 277.19797Q536.2726 278.26968 535.46606 279.07623Q534.9357 279.60657 534.20654 279.76123Q533.46625 279.90488 532.7039 279.62866Q531.9416 279.35245 531.2676 278.6785Q530.6157 278.0266 530.29535 277.26428Q529.9749 276.50192 530.1407 275.78375Q530.29535 275.05457 530.83673 274.51318Q531.23444 274.11545 531.70953 273.9718Q532.18463 273.8282 532.6487 273.89447L530.4721 271.7179L531.21234 270.97766L537.28906 277.05435L536.593 277.7504ZM532.041 277.9051Q532.8917 278.75583 533.66516 278.8221Q534.4275 278.87735 534.91364 278.39124Q535.3998 277.9051 535.34454 277.16483Q535.2893 276.4246 534.4717 275.607Q533.5657 274.70102 532.7923 274.6347Q532.02997 274.55737 531.5217 275.0656Q531.02454 275.5628 531.10187 276.30304Q531.16815 277.03226 532.041 277.9051ZM540.2832 271.23178L541.145 270.54675Q541.6422 271.3975 541.5206 272.27032Q541.3991 273.14316 540.6368 273.90552Q539.67554 274.86673 538.5044 274.84464Q537.3443 274.8115 536.2726 273.73978Q535.1677 272.63492 535.1346 271.45273Q535.0904 270.2595 535.9964 269.35352Q536.88025 268.46964 538.0293 268.51382Q539.1894 268.54697 540.2832 269.64078Q540.3495 269.70706 540.4821 269.83966L537.2007 273.12106Q537.97406 273.8061 538.7254 273.8282Q539.46564 273.83923 540.01807 273.2868Q540.4269 272.878 540.5042 272.38083Q540.58154 271.86154 540.2832 271.23178ZM536.6372 272.4692L539.08997 270.01642Q538.4823 269.49713 537.97406 269.45294Q537.1786 269.38666 536.6151 269.95013Q536.0958 270.46942 536.0848 271.16547Q536.0848 271.8505 536.6372 272.4692ZM543.6309 270.7125L539.2336 266.31516L539.9076 265.6412L540.5705 266.3041Q540.36053 265.58597 540.4269 265.23242Q540.49316 264.85675 540.7583 264.59158Q541.134 264.21594 541.7527 264.06125L542.19464 265.01144Q541.7527 265.12192 541.4875 265.3871Q541.2334 265.6412 541.1892 265.99475Q541.145 266.3262 541.3328 266.66873Q541.598 267.19904 542.062 267.6631L544.37115 269.97223L543.6309 270.7125Z" fill-rule="nonzero"/><path fill="#4285f4" d="M202.5 56.916668C202.5 56.364384 202.94771 55.916668 203.5 55.916668L213.5 55.916668C214.05229 55.916668 214.5 56.364384 214.5 56.916668L214.5 66.916664C214.5 67.46895 214.05229 67.916664 213.5 67.916664L203.5 67.916664C202.94771 67.916664 202.5 67.46895 202.5 66.916664Z" fill-rule="nonzero"/><path fill="#1a1a1a" d="M223.45312 65.916664L223.45312 57.322914L229.65625 57.322914L229.65625 58.33854L224.59375 58.33854L224.59375 60.96354L229.34375 60.96354L229.34375 61.979164L224.59375 61.979164L224.59375 64.90104L229.85938 64.90104L229.85938 65.916664L223.45312 65.916664ZM230.59375 65.916664L232.85938 62.68229L230.76562 59.697914L232.07812 59.697914L233.03125 61.15104Q233.29688 61.572914 233.46875 61.854164Q233.71875 61.46354 233.9375 61.166664L234.98438 59.697914L236.25 59.697914L234.09375 62.61979L236.40625 65.916664L235.125 65.916664L233.84375 63.979164L233.5 63.46354L231.85938 65.916664L230.59375 65.916664ZM236.29688 68.30729L236.29688 59.697914L237.25 59.697914L237.25 60.49479Q237.59375 60.02604 238.01562 59.791664Q238.45312 59.55729 239.0625 59.55729Q239.85938 59.55729 240.46875 59.96354Q241.07812 60.36979 241.375 61.11979Q241.6875 61.86979 241.6875 62.760414Q241.6875 63.71354 241.34375 64.479164Q241.01562 65.24479 240.35938 65.65104Q239.70312 66.05729 238.98438 66.05729Q238.45312 66.05729 238.03125 65.83854Q237.60938 65.604164 237.34375 65.27604L237.34375 68.30729L236.29688 68.30729ZM237.25 62.83854Q237.25 64.041664 237.73438 64.61979Q238.21875 65.18229 238.90625 65.18229Q239.60938 65.18229 240.10938 64.58854Q240.60938 63.99479 240.60938 62.74479Q240.60938 61.55729 240.125 60.979164Q239.64062 60.385414 238.95312 60.385414Q238.28125 60.385414 237.76562 61.010414Q237.25 61.635414 237.25 62.83854ZM247.54688 63.916664L248.64062 64.041664Q248.39062 64.99479 247.6875 65.52604Q246.98438 66.05729 245.90625 66.05729Q244.54688 66.05729 243.73438 65.21354Q242.9375 64.36979 242.9375 62.854164Q242.9375 61.291664 243.75 60.43229Q244.5625 59.55729 245.84375 59.55729Q247.09375 59.55729 247.875 60.40104Q248.67188 61.24479 248.67188 62.791664Q248.67188 62.885414 248.67188 63.072914L244.03125 63.072914Q244.09375 64.104164 244.60938 64.65104Q245.125 65.18229 245.90625 65.18229Q246.48438 65.18229 246.89062 64.885414Q247.3125 64.572914 247.54688 63.916664ZM244.09375 62.21354L247.5625 62.21354Q247.5 61.416664 247.17188 61.02604Q246.65625 60.416664 245.85938 60.416664Q245.125 60.416664 244.625 60.90104Q244.14062 61.385414 244.09375 62.21354ZM254.35938 63.635414L255.39062 63.77604Q255.21875 64.83854 254.51562 65.447914Q253.8125 66.05729 252.79688 66.05729Q251.51562 66.05729 250.73438 65.229164Q249.96875 64.385414 249.96875 62.822914Q249.96875 61.822914 250.29688 61.072914Q250.64062 60.30729 251.3125 59.93229Q252.0 59.55729 252.8125 59.55729Q253.8125 59.55729 254.45312 60.072914Q255.10938 60.572914 255.29688 61.52604L254.26562 61.68229Q254.125 61.05729 253.75 60.74479Q253.375 60.416664 252.84375 60.416664Q252.04688 60.416664 251.54688 60.99479Q251.04688 61.55729 251.04688 62.791664Q251.04688 64.05729 251.53125 64.61979Q252.01562 65.18229 252.78125 65.18229Q253.40625 65.18229 253.8125 64.80729Q254.23438 64.43229 254.35938 63.635414ZM258.59375 64.979164L258.75 65.90104Q258.29688 65.99479 257.95312 65.99479Q257.375 65.99479 257.0625 65.822914Q256.75 65.635414 256.60938 65.33854Q256.48438 65.041664 256.48438 64.08854L256.48438 60.510414L255.71875 60.510414L255.71875 59.697914L256.48438 59.697914L256.48438 58.15104L257.53125 57.52604L257.53125 59.697914L258.59375 59.697914L258.59375 60.510414L257.53125 60.510414L257.53125 64.15104Q257.53125 64.604164 257.57812 64.729164Q257.64062 64.854164 257.76562 64.93229Q257.89062 65.010414 258.125 65.010414Q258.3125 65.010414 258.59375 64.979164ZM263.54688 63.916664L264.64062 64.041664Q264.39062 64.99479 263.6875 65.52604Q262.98438 66.05729 261.90625 66.05729Q260.54688 66.05729 259.73438 65.21354Q258.9375 64.36979 258.9375 62.854164Q258.9375 61.291664 259.75 60.43229Q260.5625 59.55729 261.84375 59.55729Q263.09375 59.55729 263.875 60.40104Q264.67188 61.24479 264.67188 62.791664Q264.67188 62.885414 264.67188 63.072914L260.03125 63.072914Q260.09375 64.104164 260.60938 64.65104Q261.125 65.18229 261.90625 65.18229Q262.48438 65.18229 262.89062 64.885414Q263.3125 64.572914 263.54688 63.916664ZM260.09375 62.21354L263.5625 62.21354Q263.5 61.416664 263.17188 61.02604Q262.65625 60.416664 261.85938 60.416664Q261.125 60.416664 260.625 60.90104Q260.14062 61.385414 260.09375 62.21354ZM270.32812 65.916664L270.32812 65.135414Q269.73438 66.05729 268.59375 66.05729Q267.84375 66.05729 267.21875 65.65104Q266.59375 65.229164 266.25 64.49479Q265.90625 63.760414 265.90625 62.80729Q265.90625 61.885414 266.21875 61.11979Q266.53125 60.354164 267.15625 59.96354Q267.78125 59.55729 268.54688 59.55729Q269.10938 59.55729 269.54688 59.791664Q269.98438 60.02604 270.26562 60.40104L270.26562 57.322914L271.3125 57.322914L271.3125 65.916664L270.32812 65.916664ZM267.0 62.80729Q267.0 64.010414 267.5 64.604164Q268.0 65.18229 268.6875 65.18229Q269.375 65.18229 269.85938 64.61979Q270.34375 64.05729 270.34375 62.90104Q270.34375 61.61979 269.84375 61.02604Q269.35938 60.43229 268.64062 60.43229Q267.9375 60.43229 267.46875 61.010414Q267.0 61.572914 267.0 62.80729ZM278.60938 65.916664L278.60938 58.33854L275.78125 58.33854L275.78125 57.322914L282.59375 57.322914L282.59375 58.33854L279.75 58.33854L279.75 65.916664L278.60938 65.916664ZM283.29688 58.541664L283.29688 57.322914L284.35938 57.322914L284.35938 58.541664L283.29688 58.541664ZM283.29688 65.916664L283.29688 59.697914L284.35938 59.697914L284.35938 65.916664L283.29688 65.916664ZM286.29688 65.916664L286.29688 59.697914L287.23438 59.697914L287.23438 60.572914Q287.53125 60.104164 288.01562 59.83854Q288.5 59.55729 289.125 59.55729Q289.8125 59.55729 290.25 59.83854Q290.70312 60.11979 290.875 60.635414Q291.625 59.55729 292.79688 59.55729Q293.73438 59.55729 294.21875 60.072914Q294.71875 60.572914 294.71875 61.65104L294.71875 65.916664L293.67188 65.916664L293.67188 61.99479Q293.67188 61.36979 293.5625 61.08854Q293.46875 60.80729 293.20312 60.635414Q292.9375 60.46354 292.5625 60.46354Q291.90625 60.46354 291.46875 60.90104Q291.04688 61.33854 291.04688 62.30729L291.04688 65.916664L289.98438 65.916664L289.98438 61.86979Q289.98438 61.166664 289.71875 60.822914Q289.46875 60.46354 288.89062 60.46354Q288.4375 60.46354 288.0625 60.697914Q287.6875 60.93229 287.51562 61.385414Q287.34375 61.83854 287.34375 62.68229L287.34375 65.916664L286.29688 65.916664ZM301.54688 63.916664L302.64062 64.041664Q302.39062 64.99479 301.6875 65.52604Q300.98438 66.05729 299.90625 66.05729Q298.54688 66.05729 297.73438 65.21354Q296.9375 64.36979 296.9375 62.854164Q296.9375 61.291664 297.75 60.43229Q298.5625 59.55729 299.84375 59.55729Q301.09375 59.55729 301.875 60.40104Q302.67188 61.24479 302.67188 62.791664Q302.67188 62.885414 302.67188 63.072914L298.03125 63.072914Q298.09375 64.104164 298.60938 64.65104Q299.125 65.18229 299.90625 65.18229Q300.48438 65.18229 300.89062 64.885414Q301.3125 64.572914 301.54688 63.916664ZM298.09375 62.21354L301.5625 62.21354Q301.5 61.416664 301.17188 61.02604Q300.65625 60.416664 299.85938 60.416664Q299.125 60.416664 298.625 60.90104Q298.14062 61.385414 298.09375 62.21354Z" fill-rule="nonzero"/><path fill="#ea4335" d="M319.5 56.916668C319.5 56.364384 319.94772 55.916668 320.5 55.916668L330.5 55.916668C331.05228 55.916668 331.5 56.364384 331.5 56.916668L331.5 66.916664C331.5 67.46895 331.05228 67.916664 330.5 67.916664L320.5 67.916664C319.94772 67.916664 319.5 67.46895 319.5 66.916664Z" fill-rule="nonzero"/><path fill="#1a1a1a" d="M342.60938 65.916664L342.60938 58.33854L339.78125 58.33854L339.78125 57.322914L346.59375 57.322914L346.59375 58.33854L343.75 58.33854L343.75 65.916664L342.60938 65.916664ZM346.90625 62.80729Q346.90625 61.072914 347.85938 60.24479Q348.65625 59.55729 349.8125 59.55729Q351.09375 59.55729 351.90625 60.40104Q352.73438 61.229164 352.73438 62.71354Q352.73438 63.916664 352.375 64.604164Q352.01562 65.291664 351.3125 65.68229Q350.625 66.05729 349.8125 66.05729Q348.51562 66.05729 347.70312 65.229164Q346.90625 64.385414 346.90625 62.80729ZM347.98438 62.80729Q347.98438 63.99479 348.5 64.58854Q349.03125 65.18229 349.8125 65.18229Q350.60938 65.18229 351.125 64.58854Q351.64062 63.99479 351.64062 62.77604Q351.64062 61.61979 351.10938 61.02604Q350.59375 60.43229 349.8125 60.43229Q349.03125 60.43229 348.5 61.02604Q347.98438 61.604164 347.98438 62.80729ZM356.59375 64.979164L356.75 65.90104Q356.29688 65.99479 355.95312 65.99479Q355.375 65.99479 355.0625 65.822914Q354.75 65.635414 354.60938 65.33854Q354.48438 65.041664 354.48438 64.08854L354.48438 60.510414L353.71875 60.510414L353.71875 59.697914L354.48438 59.697914L354.48438 58.15104L355.53125 57.52604L355.53125 59.697914L356.59375 59.697914L356.59375 60.510414L355.53125 60.510414L355.53125 64.15104Q355.53125 64.604164 355.57812 64.729164Q355.64062 64.854164 355.76562 64.93229Q355.89062 65.010414 356.125 65.010414Q356.3125 65.010414 356.59375 64.979164ZM361.35938 65.15104Q360.76562 65.65104 360.21875 65.854164Q359.6875 66.05729 359.0625 66.05729Q358.03125 66.05729 357.48438 65.55729Q356.9375 65.05729 356.9375 64.27604Q356.9375 63.822914 357.14062 63.447914Q357.34375 63.05729 357.6875 62.83854Q358.03125 62.604164 358.45312 62.49479Q358.75 62.40104 359.39062 62.322914Q360.65625 62.18229 361.26562 61.96354Q361.26562 61.74479 361.26562 61.697914Q361.26562 61.041664 360.96875 60.77604Q360.5625 60.43229 359.76562 60.43229Q359.03125 60.43229 358.67188 60.697914Q358.3125 60.947914 358.14062 61.604164L357.10938 61.46354Q357.25 60.80729 357.57812 60.40104Q357.90625 59.99479 358.51562 59.77604Q359.125 59.55729 359.92188 59.55729Q360.71875 59.55729 361.21875 59.74479Q361.71875 59.93229 361.95312 60.21354Q362.1875 60.49479 362.28125 60.93229Q362.32812 61.197914 362.32812 61.90104L362.32812 63.30729Q362.32812 64.77604 362.39062 65.166664Q362.46875 65.55729 362.67188 65.916664L361.5625 65.916664Q361.40625 65.58854 361.35938 65.15104ZM361.26562 62.791664Q360.6875 63.02604 359.54688 63.197914Q358.89062 63.291664 358.625 63.416664Q358.35938 63.52604 358.20312 63.74479Q358.0625 63.96354 358.0625 64.24479Q358.0625 64.666664 358.375 64.947914Q358.70312 65.229164 359.3125 65.229164Q359.92188 65.229164 360.39062 64.96354Q360.875 64.697914 361.09375 64.229164Q361.26562 63.86979 361.26562 63.18229L361.26562 62.791664ZM364.26562 65.916664L364.26562 57.322914L365.32812 57.322914L365.32812 65.916664L364.26562 65.916664ZM372.60938 65.916664L372.60938 58.33854L369.78125 58.33854L369.78125 57.322914L376.59375 57.322914L376.59375 58.33854L373.75 58.33854L373.75 65.916664L372.60938 65.916664ZM377.29688 58.541664L377.29688 57.322914L378.35938 57.322914L378.35938 58.541664L377.29688 58.541664ZM377.29688 65.916664L377.29688 59.697914L378.35938 59.697914L378.35938 65.916664L377.29688 65.916664ZM380.29688 65.916664L380.29688 59.697914L381.23438 59.697914L381.23438 60.572914Q381.53125 60.104164 382.01562 59.83854Q382.5 59.55729 383.125 59.55729Q383.8125 59.55729 384.25 59.83854Q384.70312 60.11979 384.875 60.635414Q385.625 59.55729 386.79688 59.55729Q387.73438 59.55729 388.21875 60.072914Q388.71875 60.572914 388.71875 61.65104L388.71875 65.916664L387.67188 65.916664L387.67188 61.99479Q387.67188 61.36979 387.5625 61.08854Q387.46875 60.80729 387.20312 60.635414Q386.9375 60.46354 386.5625 60.46354Q385.90625 60.46354 385.46875 60.90104Q385.04688 61.33854 385.04688 62.30729L385.04688 65.916664L383.98438 65.916664L383.98438 61.86979Q383.98438 61.166664 383.71875 60.822914Q383.46875 60.46354 382.89062 60.46354Q382.4375 60.46354 382.0625 60.697914Q381.6875 60.93229 381.51562 61.385414Q381.34375 61.83854 381.34375 62.68229L381.34375 65.916664L380.29688 65.916664ZM395.54688 63.916664L396.64062 64.041664Q396.39062 64.99479 395.6875 65.52604Q394.98438 66.05729 393.90625 66.05729Q392.54688 66.05729 391.73438 65.21354Q390.9375 64.36979 390.9375 62.854164Q390.9375 61.291664 391.75 60.43229Q392.5625 59.55729 393.84375 59.55729Q395.09375 59.55729 395.875 60.40104Q396.67188 61.24479 396.67188 62.791664Q396.67188 62.885414 396.67188 63.072914L392.03125 63.072914Q392.09375 64.104164 392.60938 64.65104Q393.125 65.18229 393.90625 65.18229Q394.48438 65.18229 394.89062 64.885414Q395.3125 64.572914 395.54688 63.916664ZM392.09375 62.21354L395.5625 62.21354Q395.5 61.416664 395.17188 61.02604Q394.65625 60.416664 393.85938 60.416664Q393.125 60.416664 392.625 60.90104Q392.14062 61.385414 392.09375 62.21354Z" fill-rule="nonzero"/><path fill="#757575" d="M20.128124 37.55L20.128124 23.2375L30.4875 23.2375L30.4875 24.925L22.034374 24.925L22.034374 29.3L29.940624 29.3L29.940624 30.9875L22.034374 30.9875L22.034374 35.8625L30.815624 35.8625L30.815624 37.55L20.128124 37.55ZM31.690624 37.55L35.4875 32.159374L31.9875 27.175L34.175 27.175L35.76875 29.6125Q36.221874 30.3 36.4875 30.76875Q36.925 30.128124 37.284374 29.628124L39.034374 27.175L41.128124 27.175L37.55 32.065624L41.409374 37.55L39.253124 37.55L37.1125 34.33125L36.55 33.45625L33.83125 37.55L31.690624 37.55ZM41.8625 41.51875L41.8625 27.175L43.471874 27.175L43.471874 28.51875Q44.034374 27.7375 44.7375 27.346874Q45.45625 26.940624 46.471874 26.940624Q47.8 26.940624 48.815624 27.628124Q49.83125 28.315624 50.346874 29.565624Q50.878124 30.8 50.878124 32.284374Q50.878124 33.878124 50.3 35.159374Q49.7375 36.425 48.64375 37.1125Q47.55 37.784374 46.346874 37.784374Q45.471874 37.784374 44.76875 37.409374Q44.08125 37.034374 43.628124 36.471874L43.628124 41.51875L41.8625 41.51875ZM43.45625 32.425Q43.45625 34.425 44.26875 35.378124Q45.08125 36.33125 46.2375 36.33125Q47.409374 36.33125 48.2375 35.346874Q49.08125 34.3625 49.08125 32.26875Q49.08125 30.3 48.253124 29.315624Q47.440624 28.315624 46.315624 28.315624Q45.190624 28.315624 44.315624 29.378124Q43.45625 30.425 43.45625 32.425ZM59.971874 34.20625L61.784374 34.440624Q61.3625 36.01875 60.190624 36.909374Q59.034374 37.784374 57.221874 37.784374Q54.95625 37.784374 53.6125 36.39375Q52.284374 34.9875 52.284374 32.45625Q52.284374 29.83125 53.628124 28.39375Q54.971874 26.940624 57.128124 26.940624Q59.20625 26.940624 60.51875 28.3625Q61.846874 29.76875 61.846874 32.346874Q61.846874 32.503124 61.83125 32.815624L54.096874 32.815624Q54.190624 34.51875 55.065624 35.425Q55.940624 36.33125 57.2375 36.33125Q58.20625 36.33125 58.878124 35.83125Q59.565624 35.315624 59.971874 34.20625ZM54.190624 31.3625L59.9875 31.3625Q59.878124 30.065624 59.33125 29.409374Q58.4875 28.39375 57.14375 28.39375Q55.940624 28.39375 55.1125 29.20625Q54.284374 30.003124 54.190624 31.3625ZM70.64375 33.753124L72.3625 33.971874Q72.08125 35.76875 70.90938 36.784374Q69.75313 37.784374 68.05 37.784374Q65.925 37.784374 64.62813 36.39375Q63.33125 35.003124 63.33125 32.409374Q63.33125 30.721874 63.878124 29.471874Q64.44063 28.20625 65.58125 27.58125Q66.72188 26.940624 68.06563 26.940624Q69.75313 26.940624 70.81563 27.8Q71.89375 28.659374 72.20625 30.221874L70.4875 30.4875Q70.25313 29.440624 69.62813 28.925Q69.00313 28.39375 68.12813 28.39375Q66.8 28.39375 65.97188 29.346874Q65.14375 30.3 65.14375 32.346874Q65.14375 34.440624 65.94063 35.39375Q66.7375 36.33125 68.03438 36.33125Q69.06563 36.33125 69.75313 35.70625Q70.45625 35.065624 70.64375 33.753124ZM77.70625 35.971874L77.95625 37.534374Q77.22188 37.690624 76.62813 37.690624Q75.675 37.690624 75.14375 37.39375Q74.62813 37.08125 74.40938 36.596874Q74.19063 36.096874 74.19063 34.51875L74.19063 28.55L72.90938 28.55L72.90938 27.175L74.19063 27.175L74.19063 24.6125L75.94063 23.55L75.94063 27.175L77.70625 27.175L77.70625 28.55L75.94063 28.55L75.94063 34.6125Q75.94063 35.3625 76.03438 35.58125Q76.12813 35.784374 76.33125 35.925Q76.55 36.05 76.94063 36.05Q77.22188 36.05 77.70625 35.971874ZM86.97188 34.20625L88.78438 34.440624Q88.3625 36.01875 87.19063 36.909374Q86.03438 37.784374 84.22188 37.784374Q81.95625 37.784374 80.6125 36.39375Q79.28438 34.9875 79.28438 32.45625Q79.28438 29.83125 80.62813 28.39375Q81.97188 26.940624 84.12813 26.940624Q86.20625 26.940624 87.51875 28.3625Q88.84688 29.76875 88.84688 32.346874Q88.84688 32.503124 88.83125 32.815624L81.09688 32.815624Q81.19063 34.51875 82.06563 35.425Q82.94063 36.33125 84.2375 36.33125Q85.20625 36.33125 85.87813 35.83125Q86.56563 35.315624 86.97188 34.20625ZM81.19063 31.3625L86.9875 31.3625Q86.87813 30.065624 86.33125 29.409374Q85.4875 28.39375 84.14375 28.39375Q82.94063 28.39375 82.1125 29.20625Q81.28438 30.003124 81.19063 31.3625ZM97.59688 37.55L97.59688 36.2375Q96.6125 37.784374 94.69063 37.784374Q93.45625 37.784374 92.40938 37.096874Q91.37813 36.409374 90.8 35.190624Q90.2375 33.971874 90.2375 32.378124Q90.2375 30.815624 90.75313 29.55Q91.26875 28.284374 92.3 27.6125Q93.34688 26.940624 94.6125 26.940624Q95.55 26.940624 96.28438 27.346874Q97.01875 27.7375 97.4875 28.3625L97.4875 23.2375L99.22188 23.2375L99.22188 37.55L97.59688 37.55ZM92.03438 32.378124Q92.03438 34.3625 92.87813 35.346874Q93.72188 36.33125 94.8625 36.33125Q96.01875 36.33125 96.81563 35.39375Q97.62813 34.45625 97.62813 32.51875Q97.62813 30.39375 96.8 29.39375Q95.9875 28.39375 94.78438 28.39375Q93.6125 28.39375 92.81563 29.3625Q92.03438 30.315624 92.03438 32.378124ZM111.7375 37.55L111.7375 24.925L107.01875 24.925L107.01875 23.2375L118.3625 23.2375L118.3625 24.925L113.62813 24.925L113.62813 37.55L111.7375 37.55ZM119.87813 25.253124L119.87813 23.2375L121.64375 23.2375L121.64375 25.253124L119.87813 25.253124ZM119.87813 37.55L119.87813 27.175L121.64375 27.175L121.64375 37.55L119.87813 37.55ZM123.8625 37.55L123.8625 27.175L125.44063 27.175L125.44063 28.628124Q125.925 27.878124 126.7375 27.409374Q127.55 26.940624 128.58125 26.940624Q129.7375 26.940624 130.47188 27.425Q131.20625 27.89375 131.51875 28.753124Q132.75313 26.940624 134.72188 26.940624Q136.26875 26.940624 137.09688 27.8Q137.925 28.659374 137.925 30.425L137.925 37.55L136.175 37.55L136.175 31.01875Q136.175 29.95625 136.00313 29.503124Q135.83125 29.034374 135.37813 28.753124Q134.94063 28.471874 134.33125 28.471874Q133.2375 28.471874 132.50313 29.20625Q131.78438 29.925 131.78438 31.51875L131.78438 37.55L130.03438 37.55L130.03438 30.815624Q130.03438 29.64375 129.59688 29.065624Q129.175 28.471874 128.19063 28.471874Q127.45625 28.471874 126.81563 28.8625Q126.19063 29.253124 125.90938 30.003124Q125.62813 30.753124 125.62813 32.175L125.62813 37.55L123.8625 37.55ZM146.97188 34.20625L148.78438 34.440624Q148.3625 36.01875 147.19063 36.909374Q146.03438 37.784374 144.22188 37.784374Q141.95625 37.784374 140.6125 36.39375Q139.28438 34.9875 139.28438 32.45625Q139.28438 29.83125 140.62813 28.39375Q141.97188 26.940624 144.12813 26.940624Q146.20625 26.940624 147.51875 28.3625Q148.84688 29.76875 148.84688 32.346874Q148.84688 32.503124 148.83125 32.815624L141.09688 32.815624Q141.19063 34.51875 142.06563 35.425Q142.94063 36.33125 144.2375 36.33125Q145.20625 36.33125 145.87813 35.83125Q146.56563 35.315624 146.97188 34.20625ZM141.19063 31.3625L146.9875 31.3625Q146.87813 30.065624 146.33125 29.409374Q145.4875 28.39375 144.14375 28.39375Q142.94063 28.39375 142.1125 29.20625Q141.28438 30.003124 141.19063 31.3625ZM163.64375 36.26875Q162.65938 37.096874 161.75313 37.440624Q160.84688 37.784374 159.81563 37.784374Q158.1125 37.784374 157.19063 36.95625Q156.26875 36.1125 156.26875 34.815624Q156.26875 34.05 156.6125 33.425Q156.97188 32.8 157.53438 32.425Q158.09688 32.034374 158.8 31.83125Q159.31563 31.70625 160.3625 31.565624Q162.4875 31.315624 163.4875 30.971874Q163.50313 30.6125 163.50313 30.503124Q163.50313 29.440624 163.00313 28.9875Q162.33125 28.39375 161.00313 28.39375Q159.75313 28.39375 159.15938 28.83125Q158.58125 29.26875 158.3 30.378124L156.58125 30.14375Q156.81563 29.034374 157.34688 28.3625Q157.87813 27.675 158.89375 27.315624Q159.90938 26.940624 161.25313 26.940624Q162.58125 26.940624 163.40938 27.253124Q164.2375 27.565624 164.62813 28.05Q165.01875 28.51875 165.175 29.2375Q165.26875 29.690624 165.26875 30.8625L165.26875 33.20625Q165.26875 35.659374 165.37813 36.315624Q165.4875 36.95625 165.83125 37.55L163.9875 37.55Q163.72188 37.003124 163.64375 36.26875ZM163.4875 32.346874Q162.53438 32.7375 160.6125 33.003124Q159.53438 33.159374 159.08125 33.3625Q158.64375 33.55 158.39375 33.925Q158.14375 34.3 158.14375 34.76875Q158.14375 35.471874 158.675 35.940624Q159.20625 36.409374 160.2375 36.409374Q161.25313 36.409374 162.03438 35.971874Q162.83125 35.51875 163.20625 34.753124Q163.4875 34.14375 163.4875 32.9875L163.4875 32.346874ZM167.8625 37.55L167.8625 27.175L169.45625 27.175L169.45625 28.659374Q170.59688 26.940624 172.75313 26.940624Q173.69063 26.940624 174.47188 27.284374Q175.26875 27.6125 175.65938 28.159374Q176.05 28.70625 176.20625 29.45625Q176.3 29.95625 176.3 31.175L176.3 37.55L174.53438 37.55L174.53438 31.2375Q174.53438 30.159374 174.33125 29.628124Q174.12813 29.096874 173.59688 28.784374Q173.08125 28.471874 172.37813 28.471874Q171.25313 28.471874 170.44063 29.190624Q169.62813 29.89375 169.62813 31.878124L169.62813 37.55L167.8625 37.55ZM184.59688 37.55L184.59688 36.2375Q183.6125 37.784374 181.69063 37.784374Q180.45625 37.784374 179.40938 37.096874Q178.37813 36.409374 177.8 35.190624Q177.2375 33.971874 177.2375 32.378124Q177.2375 30.815624 177.75313 29.55Q178.26875 28.284374 179.3 27.6125Q180.34688 26.940624 181.6125 26.940624Q182.55 26.940624 183.28438 27.346874Q184.01875 27.7375 184.4875 28.3625L184.4875 23.2375L186.22188 23.2375L186.22188 37.55L184.59688 37.55ZM179.03438 32.378124Q179.03438 34.3625 179.87813 35.346874Q180.72188 36.33125 181.8625 36.33125Q183.01875 36.33125 183.81563 35.39375Q184.62813 34.45625 184.62813 32.51875Q184.62813 30.39375 183.8 29.39375Q182.9875 28.39375 181.78438 28.39375Q180.6125 28.39375 179.81563 29.3625Q179.03438 30.315624 179.03438 32.378124ZM198.7375 37.55L198.7375 24.925L194.01875 24.925L194.01875 23.2375L205.3625 23.2375L205.3625 24.925L200.62813 24.925L200.62813 37.55L198.7375 37.55ZM206.22188 32.3625Q206.22188 29.4875 207.81563 28.096874Q209.15938 26.940624 211.08125 26.940624Q213.22188 26.940624 214.56563 28.346874Q215.925 29.753124 215.925 32.221874Q215.925 34.221874 215.33125 35.378124Q214.7375 36.51875 213.58125 37.159374Q212.44063 37.784374 211.08125 37.784374Q208.89375 37.784374 207.55 36.39375Q206.22188 34.9875 206.22188 32.3625ZM208.01875 32.3625Q208.01875 34.3625 208.87813 35.346874Q209.75313 36.33125 211.08125 36.33125Q212.39375 36.33125 213.25313 35.346874Q214.12813 34.346874 214.12813 32.3Q214.12813 30.378124 213.25313 29.39375Q212.37813 28.39375 211.08125 28.39375Q209.75313 28.39375 208.87813 29.39375Q208.01875 30.378124 208.01875 32.3625ZM221.70625 35.971874L221.95625 37.534374Q221.22188 37.690624 220.62813 37.690624Q219.675 37.690624 219.14375 37.39375Q218.62813 37.08125 218.40938 36.596874Q218.19063 36.096874 218.19063 34.51875L218.19063 28.55L216.90938 28.55L216.90938 27.175L218.19063 27.175L218.19063 24.6125L219.94063 23.55L219.94063 27.175L221.70625 27.175L221.70625 28.55L219.94063 28.55L219.94063 34.6125Q219.94063 35.3625 220.03438 35.58125Q220.12813 35.784374 220.33125 35.925Q220.55 36.05 220.94063 36.05Q221.22188 36.05 221.70625 35.971874ZM230.64375 36.26875Q229.65938 37.096874 228.75313 37.440624Q227.84688 37.784374 226.81563 37.784374Q225.1125 37.784374 224.19063 36.95625Q223.26875 36.1125 223.26875 34.815624Q223.26875 34.05 223.6125 33.425Q223.97188 32.8 224.53438 32.425Q225.09688 32.034374 225.8 31.83125Q226.31563 31.70625 227.3625 31.565624Q229.4875 31.315624 230.4875 30.971874Q230.50313 30.6125 230.50313 30.503124Q230.50313 29.440624 230.00313 28.9875Q229.33125 28.39375 228.00313 28.39375Q226.75313 28.39375 226.15938 28.83125Q225.58125 29.26875 225.3 30.378124L223.58125 30.14375Q223.81563 29.034374 224.34688 28.3625Q224.87813 27.675 225.89375 27.315624Q226.90938 26.940624 228.25313 26.940624Q229.58125 26.940624 230.40938 27.253124Q231.2375 27.565624 231.62813 28.05Q232.01875 28.51875 232.175 29.2375Q232.26875 29.690624 232.26875 30.8625L232.26875 33.20625Q232.26875 35.659374 232.37813 36.315624Q232.4875 36.95625 232.83125 37.55L230.9875 37.55Q230.72188 37.003124 230.64375 36.26875ZM230.4875 32.346874Q229.53438 32.7375 227.6125 33.003124Q226.53438 33.159374 226.08125 33.3625Q225.64375 33.55 225.39375 33.925Q225.14375 34.3 225.14375 34.76875Q225.14375 35.471874 225.675 35.940624Q226.20625 36.409374 227.2375 36.409374Q228.25313 36.409374 229.03438 35.971874Q229.83125 35.51875 230.20625 34.753124Q230.4875 34.14375 230.4875 32.9875L230.4875 32.346874ZM234.83125 37.55L234.83125 23.2375L236.58125 23.2375L236.58125 37.55L234.83125 37.55ZM248.7375 37.55L248.7375 24.925L244.01875 24.925L244.01875 23.2375L255.3625 23.2375L255.3625 24.925L250.62813 24.925L250.62813 37.55L248.7375 37.55ZM256.8781 25.253124L256.8781 23.2375L258.64374 23.2375L258.64374 25.253124L256.8781 25.253124ZM256.8781 37.55L256.8781 27.175L258.64374 27.175L258.64374 37.55L256.8781 37.55ZM260.8625 37.55L260.8625 27.175L262.4406 27.175L262.4406 28.628124Q262.925 27.878124 263.7375 27.409374Q264.55 26.940624 265.58124 26.940624Q266.7375 26.940624 267.47186 27.425Q268.20624 27.89375 268.51874 28.753124Q269.7531 26.940624 271.72186 26.940624Q273.26874 26.940624 274.09686 27.8Q274.925 28.659374 274.925 30.425L274.925 37.55L273.175 37.55L273.175 31.01875Q273.175 29.95625 273.0031 29.503124Q272.83124 29.034374 272.3781 28.753124Q271.9406 28.471874 271.33124 28.471874Q270.2375 28.471874 269.5031 29.20625Q268.78436 29.925 268.78436 31.51875L268.78436 37.55L267.03436 37.55L267.03436 30.815624Q267.03436 29.64375 266.59686 29.065624Q266.175 28.471874 265.1906 28.471874Q264.45624 28.471874 263.8156 28.8625Q263.1906 29.253124 262.90936 30.003124Q262.6281 30.753124 262.6281 32.175L262.6281 37.55L260.8625 37.55ZM283.97186 34.20625L285.78436 34.440624Q285.3625 36.01875 284.1906 36.909374Q283.03436 37.784374 281.22186 37.784374Q278.95624 37.784374 277.6125 36.39375Q276.28436 34.9875 276.28436 32.45625Q276.28436 29.83125 277.6281 28.39375Q278.97186 26.940624 281.1281 26.940624Q283.20624 26.940624 284.51874 28.3625Q285.84686 29.76875 285.84686 32.346874Q285.84686 32.503124 285.83124 32.815624L278.09686 32.815624Q278.1906 34.51875 279.0656 35.425Q279.9406 36.33125 281.2375 36.33125Q282.20624 36.33125 282.8781 35.83125Q283.5656 35.315624 283.97186 34.20625ZM278.1906 31.3625L283.9875 31.3625Q283.8781 30.065624 283.33124 29.409374Q282.4875 28.39375 281.14374 28.39375Q279.9406 28.39375 279.1125 29.20625Q278.28436 30.003124 278.1906 31.3625Z" fill-rule="nonzero"/></svg>