<svg version="1.1" viewBox="0.0 0.0 982.0 356.0" fill="none" stroke="none" stroke-linecap="square" stroke-miterlimit="10" width="982" height="356" xmlns:xlink="http://www.w3.org/1999/xlink" xmlns="http://www.w3.org/2000/svg"><path fill="#ffffff" d="M0 0L982.0 0L982.0 356.0L0 356.0L0 0Z" fill-rule="nonzero"/><path stroke="#cccccc" stroke-width="1.0" stroke-linecap="butt" d="M249.5 86.5L249.5 286.5" fill-rule="nonzero"/><path stroke="#cccccc" stroke-width="1.0" stroke-linecap="butt" d="M606.5 86.5L606.5 286.5" fill-rule="nonzero"/><path stroke="#cccccc" stroke-width="1.0" stroke-linecap="butt" d="M964.5 86.5L964.5 286.5" fill-rule="nonzero"/><path stroke="#333333" stroke-width="1.0" stroke-linecap="butt" d="M44.5 286.5L964.5 286.5" fill-rule="nonzero"/><path stroke="#cccccc" stroke-width="1.0" stroke-linecap="butt" d="M44.5 246.5L964.5 246.5" fill-rule="nonzero"/><path stroke="#cccccc" stroke-width="1.0" stroke-linecap="butt" d="M44.5 206.5L964.5 206.5" fill-rule="nonzero"/><path stroke="#cccccc" stroke-width="1.0" stroke-linecap="butt" d="M44.5 166.5L964.5 166.5" fill-rule="nonzero"/><path stroke="#cccccc" stroke-width="1.0" stroke-linecap="butt" d="M44.5 126.5L964.5 126.5" fill-rule="nonzero"/><path stroke="#cccccc" stroke-width="1.0" stroke-linecap="butt" d="M44.5 86.5L964.5 86.5" fill-rule="nonzero"/><clipPath id="id_0"><path d="M44.8 86.53333L964.2 86.53333L964.2 286.2L44.8 286.2L44.8 86.53333Z" clip-rule="nonzero"/></clipPath><path stroke="#4285f4" stroke-width="2.0" stroke-linecap="butt" clip-path="url(#id_0)" d="M44.8 262.24L300.1889 286.2L402.34445 286.2L453.4222 278.21335L504.5 250.26L555.57776 286.2L657.73334 286.2L708.8111 256.25L759.8889 278.21335L810.9667 270.22665L862.04443 286.2L913.1222 282.20667L964.2 254.25333" fill-rule="nonzero"/><path stroke="#ea4335" stroke-width="2.0" stroke-linecap="butt" clip-path="url(#id_0)" d="M44.8 222.30667L300.1889 286.2L402.34445 118.48L453.4222 262.24L504.5 170.39333L555.57776 286.2L657.73334 170.39333L708.8111 234.28667L759.8889 222.30667L810.9667 154.42L862.04443 286.2L913.1222 226.69934L964.2 286.2" fill-rule="nonzero"/><path stroke="#fbbc04" stroke-width="2.0" stroke-linecap="butt" clip-path="url(#id_0)" d="M44.8 286.2L300.1889 274.22L402.34445 262.24L453.4222 238.28L504.5 250.26L555.57776 270.22665L657.73334 206.33333L708.8111 250.26L759.8889 248.26334L810.9667 278.21335L862.04443 242.27333L913.1222 278.21335L964.2 238.28" fill-rule="nonzero"/><path fill="#000000" fill-opacity="0.0" clip-path="url(#id_0)" d="M47.8 262.24C47.8 263.89685 46.456856 265.24 44.8 265.24C43.143147 265.24 41.8 263.89685 41.8 262.24C41.8 260.58316 43.143147 259.24 44.8 259.24C46.456856 259.24 47.8 260.58316 47.8 262.24Z" fill-rule="nonzero"/><path fill="#000000" fill-opacity="0.0" clip-path="url(#id_0)" d="M303.1889 286.2C303.1889 287.85684 301.84573 289.2 300.1889 289.2C298.53204 289.2 297.1889 287.85684 297.1889 286.2C297.1889 284.54315 298.53204 283.2 300.1889 283.2C301.84573 283.2 303.1889 284.54315 303.1889 286.2Z" fill-rule="nonzero"/><path fill="#000000" fill-opacity="0.0" clip-path="url(#id_0)" d="M405.34445 286.2C405.34445 287.85684 404.0013 289.2 402.34445 289.2C400.6876 289.2 399.34445 287.85684 399.34445 286.2C399.34445 284.54315 400.6876 283.2 402.34445 283.2C404.0013 283.2 405.34445 284.54315 405.34445 286.2Z" fill-rule="nonzero"/><path fill="#000000" fill-opacity="0.0" clip-path="url(#id_0)" d="M456.4222 278.21335C456.4222 279.87018 455.07907 281.21335 453.4222 281.21335C451.76538 281.21335 450.4222 279.87018 450.4222 278.21335C450.4222 276.5565 451.76538 275.21335 453.4222 275.21335C455.07907 275.21335 456.4222 276.5565 456.4222 278.21335Z" fill-rule="nonzero"/><path fill="#000000" fill-opacity="0.0" clip-path="url(#id_0)" d="M507.5 250.26C507.5 251.91685 506.15686 253.26 504.5 253.26C502.84314 253.26 501.5 251.91685 501.5 250.26C501.5 248.60315 502.84314 247.26 504.5 247.26C506.15686 247.26 507.5 248.60315 507.5 250.26Z" fill-rule="nonzero"/><path fill="#000000" fill-opacity="0.0" clip-path="url(#id_0)" d="M558.57776 286.2C558.57776 287.85684 557.2346 289.2 555.57776 289.2C553.9209 289.2 552.57776 287.85684 552.57776 286.2C552.57776 284.54315 553.9209 283.2 555.57776 283.2C557.2346 283.2 558.57776 284.54315 558.57776 286.2Z" fill-rule="nonzero"/><path fill="#000000" fill-opacity="0.0" clip-path="url(#id_0)" d="M660.73334 286.2C660.73334 287.85684 659.3902 289.2 657.73334 289.2C656.0765 289.2 654.73334 287.85684 654.73334 286.2C654.73334 284.54315 656.0765 283.2 657.73334 283.2C659.3902 283.2 660.73334 284.54315 660.73334 286.2Z" fill-rule="nonzero"/><path fill="#000000" fill-opacity="0.0" clip-path="url(#id_0)" d="M711.8111 256.25C711.8111 257.90686 710.46796 259.25 708.8111 259.25C707.15424 259.25 705.8111 257.90686 705.8111 256.25C705.8111 254.59314 707.15424 253.25 708.8111 253.25C710.46796 253.25 711.8111 254.59314 711.8111 256.25Z" fill-rule="nonzero"/><path fill="#000000" fill-opacity="0.0" clip-path="url(#id_0)" d="M762.8889 278.21335C762.8889 279.87018 761.5457 281.21335 759.8889 281.21335C758.23206 281.21335 756.8889 279.87018 756.8889 278.21335C756.8889 276.5565 758.23206 275.21335 759.8889 275.21335C761.5457 275.21335 762.8889 276.5565 762.8889 278.21335Z" fill-rule="nonzero"/><path fill="#000000" fill-opacity="0.0" clip-path="url(#id_0)" d="M813.9667 270.22665C813.9667 271.8835 812.62354 273.22665 810.9667 273.22665C809.3098 273.22665 807.9667 271.8835 807.9667 270.22665C807.9667 268.56982 809.3098 267.22665 810.9667 267.22665C812.62354 267.22665 813.9667 268.56982 813.9667 270.22665Z" fill-rule="nonzero"/><path fill="#000000" fill-opacity="0.0" clip-path="url(#id_0)" d="M865.04443 286.2C865.04443 287.85684 863.7013 289.2 862.04443 289.2C860.3876 289.2 859.04443 287.85684 859.04443 286.2C859.04443 284.54315 860.3876 283.2 862.04443 283.2C863.7013 283.2 865.04443 284.54315 865.04443 286.2Z" fill-rule="nonzero"/><path fill="#000000" fill-opacity="0.0" clip-path="url(#id_0)" d="M916.1222 282.20667C916.1222 283.86353 914.77905 285.20667 913.1222 285.20667C911.4654 285.20667 910.1222 283.86353 910.1222 282.20667C910.1222 280.5498 911.4654 279.20667 913.1222 279.20667C914.77905 279.20667 916.1222 280.5498 916.1222 282.20667Z" fill-rule="nonzero"/><path fill="#000000" fill-opacity="0.0" clip-path="url(#id_0)" d="M967.2 254.25333C967.2 255.91019 965.8569 257.25333 964.2 257.25333C962.54315 257.25333 961.2 255.91019 961.2 254.25333C961.2 252.59648 962.54315 251.25333 964.2 251.25333C965.8569 251.25333 967.2 252.59648 967.2 254.25333Z" fill-rule="nonzero"/><path fill="#000000" fill-opacity="0.0" clip-path="url(#id_0)" d="M47.8 222.30667C47.8 223.96352 46.456856 225.30667 44.8 225.30667C43.143147 225.30667 41.8 223.96352 41.8 222.30667C41.8 220.64981 43.143147 219.30667 44.8 219.30667C46.456856 219.30667 47.8 220.64981 47.8 222.30667Z" fill-rule="nonzero"/><path fill="#000000" fill-opacity="0.0" clip-path="url(#id_0)" d="M303.1889 286.2C303.1889 287.85684 301.84573 289.2 300.1889 289.2C298.53204 289.2 297.1889 287.85684 297.1889 286.2C297.1889 284.54315 298.53204 283.2 300.1889 283.2C301.84573 283.2 303.1889 284.54315 303.1889 286.2Z" fill-rule="nonzero"/><path fill="#000000" fill-opacity="0.0" clip-path="url(#id_0)" d="M405.34445 118.48C405.34445 120.136856 404.0013 121.48 402.34445 121.48C400.6876 121.48 399.34445 120.136856 399.34445 118.48C399.34445 116.82314 400.6876 115.48 402.34445 115.48C404.0013 115.48 405.34445 116.82314 405.34445 118.48Z" fill-rule="nonzero"/><path fill="#000000" fill-opacity="0.0" clip-path="url(#id_0)" d="M456.4222 262.24C456.4222 263.89685 455.07907 265.24 453.4222 265.24C451.76538 265.24 450.4222 263.89685 450.4222 262.24C450.4222 260.58316 451.76538 259.24 453.4222 259.24C455.07907 259.24 456.4222 260.58316 456.4222 262.24Z" fill-rule="nonzero"/><path fill="#000000" fill-opacity="0.0" clip-path="url(#id_0)" d="M507.5 170.39333C507.5 172.05019 506.15686 173.39333 504.5 173.39333C502.84314 173.39333 501.5 172.05019 501.5 170.39333C501.5 168.73648 502.84314 167.39333 504.5 167.39333C506.15686 167.39333 507.5 168.73648 507.5 170.39333Z" fill-rule="nonzero"/><path fill="#000000" fill-opacity="0.0" clip-path="url(#id_0)" d="M558.57776 286.2C558.57776 287.85684 557.2346 289.2 555.57776 289.2C553.9209 289.2 552.57776 287.85684 552.57776 286.2C552.57776 284.54315 553.9209 283.2 555.57776 283.2C557.2346 283.2 558.57776 284.54315 558.57776 286.2Z" fill-rule="nonzero"/><path fill="#000000" fill-opacity="0.0" clip-path="url(#id_0)" d="M660.73334 170.39333C660.73334 172.05019 659.3902 173.39333 657.73334 173.39333C656.0765 173.39333 654.73334 172.05019 654.73334 170.39333C654.73334 168.73648 656.0765 167.39333 657.73334 167.39333C659.3902 167.39333 660.73334 168.73648 660.73334 170.39333Z" fill-rule="nonzero"/><path fill="#000000" fill-opacity="0.0" clip-path="url(#id_0)" d="M711.8111 234.28667C711.8111 235.94353 710.46796 237.28667 708.8111 237.28667C707.15424 237.28667 705.8111 235.94353 705.8111 234.28667C705.8111 232.6298 707.15424 231.28667 708.8111 231.28667C710.46796 231.28667 711.8111 232.6298 711.8111 234.28667Z" fill-rule="nonzero"/><path fill="#000000" fill-opacity="0.0" clip-path="url(#id_0)" d="M762.8889 222.30667C762.8889 223.96352 761.5457 225.30667 759.8889 225.30667C758.23206 225.30667 756.8889 223.96352 756.8889 222.30667C756.8889 220.64981 758.23206 219.30667 759.8889 219.30667C761.5457 219.30667 762.8889 220.64981 762.8889 222.30667Z" fill-rule="nonzero"/><path fill="#000000" fill-opacity="0.0" clip-path="url(#id_0)" d="M813.9667 154.42C813.9667 156.07686 812.62354 157.42 810.9667 157.42C809.3098 157.42 807.9667 156.07686 807.9667 154.42C807.9667 152.76315 809.3098 151.42 810.9667 151.42C812.62354 151.42 813.9667 152.76315 813.9667 154.42Z" fill-rule="nonzero"/><path fill="#000000" fill-opacity="0.0" clip-path="url(#id_0)" d="M865.04443 286.2C865.04443 287.85684 863.7013 289.2 862.04443 289.2C860.3876 289.2 859.04443 287.85684 859.04443 286.2C859.04443 284.54315 860.3876 283.2 862.04443 283.2C863.7013 283.2 865.04443 284.54315 865.04443 286.2Z" fill-rule="nonzero"/><path fill="#000000" fill-opacity="0.0" clip-path="url(#id_0)" d="M916.1222 226.69934C916.1222 228.35619 914.77905 229.69934 913.1222 229.69934C911.4654 229.69934 910.1222 228.35619 910.1222 226.69934C910.1222 225.04248 911.4654 223.69934 913.1222 223.69934C914.77905 223.69934 916.1222 225.04248 916.1222 226.69934Z" fill-rule="nonzero"/><path fill="#000000" fill-opacity="0.0" clip-path="url(#id_0)" d="M967.2 286.2C967.2 287.85684 965.8569 289.2 964.2 289.2C962.54315 289.2 961.2 287.85684 961.2 286.2C961.2 284.54315 962.54315 283.2 964.2 283.2C965.8569 283.2 967.2 284.54315 967.2 286.2Z" fill-rule="nonzero"/><path fill="#000000" fill-opacity="0.0" clip-path="url(#id_0)" d="M47.8 286.2C47.8 287.85684 46.456856 289.2 44.8 289.2C43.143147 289.2 41.8 287.85684 41.8 286.2C41.8 284.54315 43.143147 283.2 44.8 283.2C46.456856 283.2 47.8 284.54315 47.8 286.2Z" fill-rule="nonzero"/><path fill="#000000" fill-opacity="0.0" clip-path="url(#id_0)" d="M303.1889 274.22C303.1889 275.87686 301.84573 277.22 300.1889 277.22C298.53204 277.22 297.1889 275.87686 297.1889 274.22C297.1889 272.56314 298.53204 271.22 300.1889 271.22C301.84573 271.22 303.1889 272.56314 303.1889 274.22Z" fill-rule="nonzero"/><path fill="#000000" fill-opacity="0.0" clip-path="url(#id_0)" d="M405.34445 262.24C405.34445 263.89685 404.0013 265.24 402.34445 265.24C400.6876 265.24 399.34445 263.89685 399.34445 262.24C399.34445 260.58316 400.6876 259.24 402.34445 259.24C404.0013 259.24 405.34445 260.58316 405.34445 262.24Z" fill-rule="nonzero"/><path fill="#000000" fill-opacity="0.0" clip-path="url(#id_0)" d="M456.4222 238.28C456.4222 239.93686 455.07907 241.28 453.4222 241.28C451.76538 241.28 450.4222 239.93686 450.4222 238.28C450.4222 236.62314 451.76538 235.28 453.4222 235.28C455.07907 235.28 456.4222 236.62314 456.4222 238.28Z" fill-rule="nonzero"/><path fill="#000000" fill-opacity="0.0" clip-path="url(#id_0)" d="M507.5 250.26C507.5 251.91685 506.15686 253.26 504.5 253.26C502.84314 253.26 501.5 251.91685 501.5 250.26C501.5 248.60315 502.84314 247.26 504.5 247.26C506.15686 247.26 507.5 248.60315 507.5 250.26Z" fill-rule="nonzero"/><path fill="#000000" fill-opacity="0.0" clip-path="url(#id_0)" d="M558.57776 270.22665C558.57776 271.8835 557.2346 273.22665 555.57776 273.22665C553.9209 273.22665 552.57776 271.8835 552.57776 270.22665C552.57776 268.56982 553.9209 267.22665 555.57776 267.22665C557.2346 267.22665 558.57776 268.56982 558.57776 270.22665Z" fill-rule="nonzero"/><path fill="#000000" fill-opacity="0.0" clip-path="url(#id_0)" d="M660.73334 206.33333C660.73334 207.99019 659.3902 209.33333 657.73334 209.33333C656.0765 209.33333 654.73334 207.99019 654.73334 206.33333C654.73334 204.67648 656.0765 203.33333 657.73334 203.33333C659.3902 203.33333 660.73334 204.67648 660.73334 206.33333Z" fill-rule="nonzero"/><path fill="#000000" fill-opacity="0.0" clip-path="url(#id_0)" d="M711.8111 250.26C711.8111 251.91685 710.46796 253.26 708.8111 253.26C707.15424 253.26 705.8111 251.91685 705.8111 250.26C705.8111 248.60315 707.15424 247.26 708.8111 247.26C710.46796 247.26 711.8111 248.60315 711.8111 250.26Z" fill-rule="nonzero"/><path fill="#000000" fill-opacity="0.0" clip-path="url(#id_0)" d="M762.8889 248.26334C762.8889 249.92018 761.5457 251.26334 759.8889 251.26334C758.23206 251.26334 756.8889 249.92018 756.8889 248.26334C756.8889 246.60648 758.23206 245.26334 759.8889 245.26334C761.5457 245.26334 762.8889 246.60648 762.8889 248.26334Z" fill-rule="nonzero"/><path fill="#000000" fill-opacity="0.0" clip-path="url(#id_0)" d="M813.9667 278.21335C813.9667 279.87018 812.62354 281.21335 810.9667 281.21335C809.3098 281.21335 807.9667 279.87018 807.9667 278.21335C807.9667 276.5565 809.3098 275.21335 810.9667 275.21335C812.62354 275.21335 813.9667 276.5565 813.9667 278.21335Z" fill-rule="nonzero"/><path fill="#000000" fill-opacity="0.0" clip-path="url(#id_0)" d="M865.04443 242.27333C865.04443 243.93019 863.7013 245.27333 862.04443 245.27333C860.3876 245.27333 859.04443 243.93019 859.04443 242.27333C859.04443 240.61649 860.3876 239.27333 862.04443 239.27333C863.7013 239.27333 865.04443 240.61649 865.04443 242.27333Z" fill-rule="nonzero"/><path fill="#000000" fill-opacity="0.0" clip-path="url(#id_0)" d="M916.1222 278.21335C916.1222 279.87018 914.77905 281.21335 913.1222 281.21335C911.4654 281.21335 910.1222 279.87018 910.1222 278.21335C910.1222 276.5565 911.4654 275.21335 913.1222 275.21335C914.77905 275.21335 916.1222 276.5565 916.1222 278.21335Z" fill-rule="nonzero"/><path fill="#000000" fill-opacity="0.0" clip-path="url(#id_0)" d="M967.2 238.28C967.2 239.93686 965.8569 241.28 964.2 241.28C962.54315 241.28 961.2 239.93686 961.2 238.28C961.2 236.62314 962.54315 235.28 964.2 235.28C965.8569 235.28 967.2 236.62314 967.2 238.28Z" fill-rule="nonzero"/><path fill="#000000" d="M492.42188 335.2L492.42188 326.60626L495.39062 326.60626Q496.39062 326.60626 496.92188 326.73126Q497.65625 326.90314 498.17188 327.34064Q498.85938 327.91876 499.1875 328.825Q499.53125 329.71564 499.53125 330.85626Q499.53125 331.84064 499.29688 332.59064Q499.07812 333.34064 498.71875 333.84064Q498.35938 334.34064 497.92188 334.6219Q497.5 334.90314 496.90625 335.0594Q496.3125 335.2 495.53125 335.2L492.42188 335.2ZM493.5625 334.1844L495.39062 334.1844Q496.25 334.1844 496.73438 334.02814Q497.21875 333.8719 497.5 333.575Q497.90625 333.1844 498.125 332.4969Q498.35938 331.8094 498.35938 330.84064Q498.35938 329.4969 497.90625 328.77814Q497.46875 328.04376 496.84375 327.79376Q496.375 327.6219 495.375 327.6219L493.5625 327.6219L493.5625 334.1844ZM505.35938 334.4344Q504.76562 334.9344 504.21875 335.1375Q503.6875 335.34064 503.0625 335.34064Q502.03125 335.34064 501.48438 334.84064Q500.9375 334.34064 500.9375 333.5594Q500.9375 333.10626 501.14062 332.73126Q501.34375 332.34064 501.6875 332.1219Q502.03125 331.8875 502.45312 331.77814Q502.75 331.6844 503.39062 331.60626Q504.65625 331.46564 505.26562 331.2469Q505.26562 331.02814 505.26562 330.98126Q505.26562 330.325 504.96875 330.0594Q504.5625 329.71564 503.76562 329.71564Q503.03125 329.71564 502.67188 329.98126Q502.3125 330.23126 502.14062 330.8875L501.10938 330.7469Q501.25 330.09064 501.57812 329.6844Q501.90625 329.27814 502.51562 329.0594Q503.125 328.84064 503.92188 328.84064Q504.71875 328.84064 505.21875 329.02814Q505.71875 329.21564 505.95312 329.4969Q506.1875 329.77814 506.28125 330.21564Q506.32812 330.48126 506.32812 331.1844L506.32812 332.59064Q506.32812 334.0594 506.39062 334.45Q506.46875 334.84064 506.67188 335.2L505.5625 335.2Q505.40625 334.8719 505.35938 334.4344ZM505.26562 332.075Q504.6875 332.3094 503.54688 332.48126Q502.89062 332.575 502.625 332.7Q502.35938 332.8094 502.20312 333.02814Q502.0625 333.2469 502.0625 333.52814Q502.0625 333.95 502.375 334.23126Q502.70312 334.5125 503.3125 334.5125Q503.92188 334.5125 504.39062 334.2469Q504.875 333.98126 505.09375 333.5125Q505.26562 333.15314 505.26562 332.46564L505.26562 332.075ZM510.59375 334.2625L510.75 335.1844Q510.29688 335.27814 509.95312 335.27814Q509.375 335.27814 509.0625 335.10626Q508.75 334.91876 508.60938 334.6219Q508.48438 334.325 508.48438 333.3719L508.48438 329.79376L507.71875 329.79376L507.71875 328.98126L508.48438 328.98126L508.48438 327.4344L509.53125 326.8094L509.53125 328.98126L510.59375 328.98126L510.59375 329.79376L509.53125 329.79376L509.53125 333.4344Q509.53125 333.8875 509.57812 334.0125Q509.64062 334.1375 509.76562 334.21564Q509.89062 334.29376 510.125 334.29376Q510.3125 334.29376 510.59375 334.2625ZM515.5469 333.2L516.6406 333.325Q516.3906 334.27814 515.6875 334.8094Q514.9844 335.34064 513.90625 335.34064Q512.5469 335.34064 511.73438 334.4969Q510.9375 333.65314 510.9375 332.1375Q510.9375 330.575 511.75 329.71564Q512.5625 328.84064 513.84375 328.84064Q515.09375 328.84064 515.875 329.6844Q516.6719 330.52814 516.6719 332.075Q516.6719 332.16876 516.6719 332.35626L512.03125 332.35626Q512.09375 333.3875 512.6094 333.9344Q513.125 334.46564 513.90625 334.46564Q514.4844 334.46564 514.8906 334.16876Q515.3125 333.85626 515.5469 333.2ZM512.09375 331.4969L515.5625 331.4969Q515.5 330.7 515.1719 330.3094Q514.65625 329.7 513.8594 329.7Q513.125 329.7 512.625 330.1844Q512.1406 330.66876 512.09375 331.4969Z" fill-rule="nonzero"/><path fill="#000000" d="M32.3 285.96564Q32.3 284.4344 32.6125 283.5125Q32.925 282.575 33.534374 282.075Q34.159374 281.575 35.096874 281.575Q35.784374 281.575 36.3 281.85626Q36.83125 282.1375 37.175 282.66876Q37.51875 283.1844 37.70625 283.9344Q37.89375 284.6844 37.89375 285.96564Q37.89375 287.48126 37.58125 288.40314Q37.284374 289.325 36.659374 289.84064Q36.05 290.34064 35.096874 290.34064Q33.8625 290.34064 33.14375 289.45Q32.3 288.3875 32.3 285.96564ZM33.378124 285.96564Q33.378124 288.075 33.878124 288.77814Q34.378124 289.48126 35.096874 289.48126Q35.83125 289.48126 36.315624 288.77814Q36.815624 288.075 36.815624 285.96564Q36.815624 283.84064 36.315624 283.15314Q35.83125 282.45 35.08125 282.45Q34.3625 282.45 33.925 283.0594Q33.378124 283.84064 33.378124 285.96564Z" fill-rule="nonzero"/><path fill="#000000" d="M32.3 248.01666L33.409374 247.92291Q33.534374 248.73541 33.971874 249.14166Q34.425 249.54791 35.065624 249.54791Q35.815624 249.54791 36.346874 248.96979Q36.878124 248.39166 36.878124 247.45416Q36.878124 246.54791 36.3625 246.03229Q35.8625 245.50104 35.034374 245.50104Q34.534374 245.50104 34.1125 245.73541Q33.70625 245.96979 33.471874 246.32916L32.4875 246.20416L33.315624 241.79791L37.596874 241.79791L37.596874 242.79791L34.159374 242.79791L33.70625 245.11041Q34.471874 244.56354 35.315624 244.56354Q36.440624 244.56354 37.20625 245.34479Q37.9875 246.12604 37.9875 247.36041Q37.9875 248.51666 37.315624 249.37604Q36.4875 250.40729 35.065624 250.40729Q33.89375 250.40729 33.14375 249.75104Q32.409374 249.09479 32.3 248.01666Z" fill-rule="nonzero"/><path fill="#000000" d="M29.26875 210.33333L28.221874 210.33333L28.221874 203.61458Q27.83125 203.97395 27.20625 204.34895Q26.596874 204.70833 26.1125 204.8802L26.1125 203.86458Q26.9875 203.4427 27.64375 202.86458Q28.315624 202.27083 28.596874 201.70833L29.26875 201.70833L29.26875 210.33333ZM32.3 206.09895Q32.3 204.5677 32.6125 203.64583Q32.925 202.70833 33.534374 202.20833Q34.159374 201.70833 35.096874 201.70833Q35.784374 201.70833 36.3 201.98958Q36.83125 202.27083 37.175 202.80208Q37.51875 203.3177 37.70625 204.0677Q37.89375 204.8177 37.89375 206.09895Q37.89375 207.61458 37.58125 208.53645Q37.284374 209.45833 36.659374 209.97395Q36.05 210.47395 35.096874 210.47395Q33.8625 210.47395 33.14375 209.58333Q32.3 208.52083 32.3 206.09895ZM33.378124 206.09895Q33.378124 208.20833 33.878124 208.91145Q34.378124 209.61458 35.096874 209.61458Q35.83125 209.61458 36.315624 208.91145Q36.815624 208.20833 36.815624 206.09895Q36.815624 203.97395 36.315624 203.28645Q35.83125 202.58333 35.08125 202.58333Q34.3625 202.58333 33.925 203.1927Q33.378124 203.97395 33.378124 206.09895Z" fill-rule="nonzero"/><path fill="#000000" d="M29.26875 170.4L28.221874 170.4L28.221874 163.68124Q27.83125 164.04062 27.20625 164.41562Q26.596874 164.775 26.1125 164.94687L26.1125 163.93124Q26.9875 163.50937 27.64375 162.93124Q28.315624 162.3375 28.596874 161.775L29.26875 161.775L29.26875 170.4ZM32.3 168.15L33.409374 168.05624Q33.534374 168.86874 33.971874 169.275Q34.425 169.68124 35.065624 169.68124Q35.815624 169.68124 36.346874 169.10312Q36.878124 168.525 36.878124 167.5875Q36.878124 166.68124 36.3625 166.16562Q35.8625 165.63437 35.034374 165.63437Q34.534374 165.63437 34.1125 165.86874Q33.70625 166.10312 33.471874 166.4625L32.4875 166.3375L33.315624 161.93124L37.596874 161.93124L37.596874 162.93124L34.159374 162.93124L33.70625 165.24374Q34.471874 164.69687 35.315624 164.69687Q36.440624 164.69687 37.20625 165.47812Q37.9875 166.25937 37.9875 167.49374Q37.9875 168.65 37.315624 169.50937Q36.4875 170.54062 35.065624 170.54062Q33.89375 170.54062 33.14375 169.88437Q32.409374 169.22812 32.3 168.15Z" fill-rule="nonzero"/><path fill="#000000" d="M30.846874 129.45103L30.846874 130.46666L25.159374 130.46666Q25.159374 130.09166 25.284374 129.73228Q25.503124 129.15416 25.971874 128.59166Q26.45625 128.02916 27.3625 127.294785Q28.76875 126.138535 29.253124 125.46666Q29.753124 124.794785 29.753124 124.201035Q29.753124 123.576035 29.3 123.15416Q28.846874 122.71666 28.128124 122.71666Q27.3625 122.71666 26.909374 123.169785Q26.45625 123.62291 26.440624 124.43541L25.3625 124.326035Q25.471874 123.107285 26.190624 122.482285Q26.925 121.84166 28.159374 121.84166Q29.39375 121.84166 30.1125 122.52916Q30.83125 123.21666 30.83125 124.232285Q30.83125 124.74791 30.6125 125.24791Q30.409374 125.732285 29.909374 126.294785Q29.425 126.84166 28.3 127.794785Q27.346874 128.59166 27.065624 128.88853Q26.8 129.16978 26.628124 129.45103L30.846874 129.45103ZM32.3 126.232285Q32.3 124.701035 32.6125 123.77916Q32.925 122.84166 33.534374 122.34166Q34.159374 121.84166 35.096874 121.84166Q35.784374 121.84166 36.3 122.12291Q36.83125 122.40416 37.175 122.93541Q37.51875 123.451035 37.70625 124.201035Q37.89375 124.951035 37.89375 126.232285Q37.89375 127.74791 37.58125 128.66978Q37.284374 129.59166 36.659374 130.10728Q36.05 130.60728 35.096874 130.60728Q33.8625 130.60728 33.14375 129.71666Q32.3 128.65416 32.3 126.232285ZM33.378124 126.232285Q33.378124 128.34166 33.878124 129.04478Q34.378124 129.74791 35.096874 129.74791Q35.83125 129.74791 36.315624 129.04478Q36.815624 128.34166 36.815624 126.232285Q36.815624 124.107285 36.315624 123.419785Q35.83125 122.71666 35.08125 122.71666Q34.3625 122.71666 33.925 123.326035Q33.378124 124.107285 33.378124 126.232285Z" fill-rule="nonzero"/><path fill="#000000" d="M30.846874 89.51771L30.846874 90.53333L25.159374 90.53333Q25.159374 90.15833 25.284374 89.79896Q25.503124 89.22083 25.971874 88.65833Q26.45625 88.09583 27.3625 87.36146Q28.76875 86.20521 29.253124 85.53333Q29.753124 84.86146 29.753124 84.26771Q29.753124 83.64271 29.3 83.22083Q28.846874 82.78333 28.128124 82.78333Q27.3625 82.78333 26.909374 83.23646Q26.45625 83.68958 26.440624 84.50208L25.3625 84.39271Q25.471874 83.17396 26.190624 82.54896Q26.925 81.90833 28.159374 81.90833Q29.39375 81.90833 30.1125 82.59583Q30.83125 83.28333 30.83125 84.29896Q30.83125 84.81458 30.6125 85.31458Q30.409374 85.79896 29.909374 86.36146Q29.425 86.90833 28.3 87.86146Q27.346874 88.65833 27.065624 88.95521Q26.8 89.23646 26.628124 89.51771L30.846874 89.51771ZM32.3 88.28333L33.409374 88.18958Q33.534374 89.00208 33.971874 89.40833Q34.425 89.81458 35.065624 89.81458Q35.815624 89.81458 36.346874 89.23646Q36.878124 88.65833 36.878124 87.72083Q36.878124 86.81458 36.3625 86.29896Q35.8625 85.76771 35.034374 85.76771Q34.534374 85.76771 34.1125 86.00208Q33.70625 86.23646 33.471874 86.59583L32.4875 86.47083L33.315624 82.06458L37.596874 82.06458L37.596874 83.06458L34.159374 83.06458L33.70625 85.37708Q34.471874 84.83021 35.315624 84.83021Q36.440624 84.83021 37.20625 85.61146Q37.9875 86.39271 37.9875 87.62708Q37.9875 88.78333 37.315624 89.64271Q36.4875 90.67396 35.065624 90.67396Q33.89375 90.67396 33.14375 90.01771Q32.409374 89.36146 32.3 88.28333Z" fill-rule="nonzero"/><path fill="#000000" d="M223.15799 302.1844L223.15799 303.2L217.47049 303.2Q217.47049 302.825 217.59549 302.46564Q217.81424 301.8875 218.28299 301.325Q218.76736 300.7625 219.67361 300.02814Q221.07986 298.8719 221.56424 298.2Q222.06424 297.52814 222.06424 296.9344Q222.06424 296.3094 221.61111 295.8875Q221.15799 295.45 220.43924 295.45Q219.67361 295.45 219.22049 295.90314Q218.76736 296.35626 218.75174 297.16876L217.67361 297.0594Q217.78299 295.84064 218.50174 295.21564Q219.23611 294.575 220.47049 294.575Q221.70486 294.575 222.42361 295.2625Q223.14236 295.95 223.14236 296.96564Q223.14236 297.48126 222.92361 297.98126Q222.72049 298.46564 222.22049 299.02814Q221.73611 299.575 220.61111 300.52814Q219.65799 301.325 219.37674 301.6219Q219.11111 301.90314 218.93924 302.1844L223.15799 302.1844ZM224.61111 298.96564Q224.61111 297.4344 224.92361 296.5125Q225.23611 295.575 225.84549 295.075Q226.47049 294.575 227.40799 294.575Q228.09549 294.575 228.61111 294.85626Q229.14236 295.1375 229.48611 295.66876Q229.82986 296.1844 230.01736 296.9344Q230.20486 297.6844 230.20486 298.96564Q230.20486 300.48126 229.89236 301.40314Q229.59549 302.325 228.97049 302.84064Q228.36111 303.34064 227.40799 303.34064Q226.17361 303.34064 225.45486 302.45Q224.61111 301.3875 224.61111 298.96564ZM225.68924 298.96564Q225.68924 301.075 226.18924 301.77814Q226.68924 302.48126 227.40799 302.48126Q228.14236 302.48126 228.62674 301.77814Q229.12674 301.075 229.12674 298.96564Q229.12674 296.84064 228.62674 296.15314Q228.14236 295.45 227.39236 295.45Q226.67361 295.45 226.23611 296.0594Q225.68924 296.84064 225.68924 298.96564ZM237.15799 302.1844L237.15799 303.2L231.47049 303.2Q231.47049 302.825 231.59549 302.46564Q231.81424 301.8875 232.28299 301.325Q232.76736 300.7625 233.67361 300.02814Q235.07986 298.8719 235.56424 298.2Q236.06424 297.52814 236.06424 296.9344Q236.06424 296.3094 235.61111 295.8875Q235.15799 295.45 234.43924 295.45Q233.67361 295.45 233.22049 295.90314Q232.76736 296.35626 232.75174 297.16876L231.67361 297.0594Q231.78299 295.84064 232.50174 295.21564Q233.23611 294.575 234.47049 294.575Q235.70486 294.575 236.42361 295.2625Q237.14236 295.95 237.14236 296.96564Q237.14236 297.48126 236.92361 297.98126Q236.72049 298.46564 236.22049 299.02814Q235.73611 299.575 234.61111 300.52814Q233.65799 301.325 233.37674 301.6219Q233.11111 301.90314 232.93924 302.1844L237.15799 302.1844ZM241.98611 303.2L241.98611 301.1375L238.26736 301.1375L238.26736 300.16876L242.18924 294.60626L243.04861 294.60626L243.04861 300.16876L244.20486 300.16876L244.20486 301.1375L243.04861 301.1375L243.04861 303.2L241.98611 303.2ZM241.98611 300.16876L241.98611 296.3094L239.29861 300.16876L241.98611 300.16876ZM245.48611 300.6219L245.48611 299.5594L248.73611 299.5594L248.73611 300.6219L245.48611 300.6219ZM249.61111 298.96564Q249.61111 297.4344 249.92361 296.5125Q250.23611 295.575 250.84549 295.075Q251.47049 294.575 252.40799 294.575Q253.09549 294.575 253.61111 294.85626Q254.14236 295.1375 254.48611 295.66876Q254.82986 296.1844 255.01736 296.9344Q255.20486 297.6844 255.20486 298.96564Q255.20486 300.48126 254.89236 301.40314Q254.59549 302.325 253.97049 302.84064Q253.36111 303.34064 252.40799 303.34064Q251.17361 303.34064 250.45486 302.45Q249.61111 301.3875 249.61111 298.96564ZM250.68924 298.96564Q250.68924 301.075 251.18924 301.77814Q251.68924 302.48126 252.40799 302.48126Q253.14236 302.48126 253.62674 301.77814Q254.12674 301.075 254.12674 298.96564Q254.12674 296.84064 253.62674 296.15314Q253.14236 295.45 252.39236 295.45Q251.67361 295.45 251.23611 296.0594Q250.68924 296.84064 250.68924 298.96564ZM262.158 302.1844L262.158 303.2L256.4705 303.2Q256.4705 302.825 256.5955 302.46564Q256.81424 301.8875 257.283 301.325Q257.76736 300.7625 258.6736 300.02814Q260.07986 298.8719 260.56424 298.2Q261.06424 297.52814 261.06424 296.9344Q261.06424 296.3094 260.6111 295.8875Q260.158 295.45 259.43924 295.45Q258.6736 295.45 258.2205 295.90314Q257.76736 296.35626 257.75174 297.16876L256.6736 297.0594Q256.783 295.84064 257.50174 295.21564Q258.2361 294.575 259.4705 294.575Q260.70486 294.575 261.4236 295.2625Q262.14236 295.95 262.14236 296.96564Q262.14236 297.48126 261.9236 297.98126Q261.7205 298.46564 261.2205 299.02814Q260.7361 299.575 259.6111 300.52814Q258.658 301.325 258.37674 301.6219Q258.1111 301.90314 257.93924 302.1844L262.158 302.1844ZM263.4861 300.6219L263.4861 299.5594L266.7361 299.5594L266.7361 300.6219L263.4861 300.6219ZM271.57986 303.2L270.533 303.2L270.533 296.48126Q270.14236 296.84064 269.51736 297.21564Q268.908 297.575 268.4236 297.7469L268.4236 296.73126Q269.2986 296.3094 269.95486 295.73126Q270.62674 295.1375 270.908 294.575L271.57986 294.575L271.57986 303.2ZM276.2361 298.54376Q275.57986 298.29376 275.25174 297.85626Q274.93924 297.40314 274.93924 296.79376Q274.93924 295.85626 275.6111 295.21564Q276.2986 294.575 277.408 294.575Q278.533 294.575 279.2205 295.23126Q279.908 295.8875 279.908 296.825Q279.908 297.41876 279.5955 297.85626Q279.283 298.29376 278.64236 298.54376Q279.43924 298.79376 279.8455 299.3719Q280.25174 299.95 280.25174 300.7469Q280.25174 301.84064 279.4705 302.59064Q278.70486 303.34064 277.4236 303.34064Q276.158 303.34064 275.37674 302.59064Q274.5955 301.84064 274.5955 300.71564Q274.5955 299.8719 275.01736 299.3094Q275.45486 298.7469 276.2361 298.54376ZM276.01736 296.7469Q276.01736 297.35626 276.408 297.7469Q276.81424 298.1375 277.43924 298.1375Q278.0486 298.1375 278.43924 297.7625Q278.82986 297.3719 278.82986 296.8094Q278.82986 296.23126 278.4236 295.84064Q278.01736 295.4344 277.4236 295.4344Q276.81424 295.4344 276.408 295.825Q276.01736 296.21564 276.01736 296.7469ZM275.68924 300.71564Q275.68924 301.16876 275.89236 301.59064Q276.1111 302.0125 276.533 302.2469Q276.95486 302.48126 277.43924 302.48126Q278.18924 302.48126 278.6736 301.9969Q279.1736 301.5125 279.1736 300.7625Q279.1736 299.9969 278.6736 299.4969Q278.1736 298.9969 277.408 298.9969Q276.658 298.9969 276.1736 299.4969Q275.68924 299.98126 275.68924 300.71564Z" fill-rule="nonzero"/><path fill="#000000" d="M580.70245 302.1844L580.70245 303.2L575.01495 303.2Q575.01495 302.825 575.13995 302.46564Q575.3587 301.8875 575.82745 301.325Q576.3118 300.7625 577.2181 300.02814Q578.6243 298.8719 579.1087 298.2Q579.6087 297.52814 579.6087 296.9344Q579.6087 296.3094 579.1556 295.8875Q578.70245 295.45 577.9837 295.45Q577.2181 295.45 576.76495 295.90314Q576.3118 296.35626 576.2962 297.16876L575.2181 297.0594Q575.32745 295.84064 576.0462 295.21564Q576.7806 294.575 578.01495 294.575Q579.2493 294.575 579.9681 295.2625Q580.6868 295.95 580.6868 296.96564Q580.6868 297.48126 580.4681 297.98126Q580.26495 298.46564 579.76495 299.02814Q579.2806 299.575 578.1556 300.52814Q577.20245 301.325 576.9212 301.6219Q576.6556 301.90314 576.4837 302.1844L580.70245 302.1844ZM582.1556 298.96564Q582.1556 297.4344 582.4681 296.5125Q582.7806 295.575 583.38995 295.075Q584.01495 294.575 584.95245 294.575Q585.63995 294.575 586.1556 294.85626Q586.6868 295.1375 587.0306 295.66876Q587.3743 296.1844 587.5618 296.9344Q587.7493 297.6844 587.7493 298.96564Q587.7493 300.48126 587.4368 301.40314Q587.13995 302.325 586.51495 302.84064Q585.9056 303.34064 584.95245 303.34064Q583.7181 303.34064 582.9993 302.45Q582.1556 301.3875 582.1556 298.96564ZM583.2337 298.96564Q583.2337 301.075 583.7337 301.77814Q584.2337 302.48126 584.95245 302.48126Q585.6868 302.48126 586.1712 301.77814Q586.6712 301.075 586.6712 298.96564Q586.6712 296.84064 586.1712 296.15314Q585.6868 295.45 584.9368 295.45Q584.2181 295.45 583.7806 296.0594Q583.2337 296.84064 583.2337 298.96564ZM594.70245 302.1844L594.70245 303.2L589.01495 303.2Q589.01495 302.825 589.13995 302.46564Q589.3587 301.8875 589.82745 301.325Q590.3118 300.7625 591.2181 300.02814Q592.6243 298.8719 593.1087 298.2Q593.6087 297.52814 593.6087 296.9344Q593.6087 296.3094 593.1556 295.8875Q592.70245 295.45 591.9837 295.45Q591.2181 295.45 590.76495 295.90314Q590.3118 296.35626 590.2962 297.16876L589.2181 297.0594Q589.32745 295.84064 590.0462 295.21564Q590.7806 294.575 592.01495 294.575Q593.2493 294.575 593.9681 295.2625Q594.6868 295.95 594.6868 296.96564Q594.6868 297.48126 594.4681 297.98126Q594.26495 298.46564 593.76495 299.02814Q593.2806 299.575 592.1556 300.52814Q591.20245 301.325 590.9212 301.6219Q590.6556 301.90314 590.4837 302.1844L594.70245 302.1844ZM599.5306 303.2L599.5306 301.1375L595.8118 301.1375L595.8118 300.16876L599.7337 294.60626L600.5931 294.60626L600.5931 300.16876L601.7493 300.16876L601.7493 301.1375L600.5931 301.1375L600.5931 303.2L599.5306 303.2ZM599.5306 300.16876L599.5306 296.3094L596.8431 300.16876L599.5306 300.16876ZM603.0306 300.6219L603.0306 299.5594L606.2806 299.5594L606.2806 300.6219L603.0306 300.6219ZM607.1556 298.96564Q607.1556 297.4344 607.4681 296.5125Q607.7806 295.575 608.38995 295.075Q609.01495 294.575 609.95245 294.575Q610.63995 294.575 611.1556 294.85626Q611.6868 295.1375 612.0306 295.66876Q612.3743 296.1844 612.5618 296.9344Q612.7493 297.6844 612.7493 298.96564Q612.7493 300.48126 612.4368 301.40314Q612.13995 302.325 611.51495 302.84064Q610.9056 303.34064 609.95245 303.34064Q608.7181 303.34064 607.9993 302.45Q607.1556 301.3875 607.1556 298.96564ZM608.2337 298.96564Q608.2337 301.075 608.7337 301.77814Q609.2337 302.48126 609.95245 302.48126Q610.6868 302.48126 611.1712 301.77814Q611.6712 301.075 611.6712 298.96564Q611.6712 296.84064 611.1712 296.15314Q610.6868 295.45 609.9368 295.45Q609.2181 295.45 608.7806 296.0594Q608.2337 296.84064 608.2337 298.96564ZM619.70245 302.1844L619.70245 303.2L614.01495 303.2Q614.01495 302.825 614.13995 302.46564Q614.3587 301.8875 614.82745 301.325Q615.3118 300.7625 616.2181 300.02814Q617.6243 298.8719 618.1087 298.2Q618.6087 297.52814 618.6087 296.9344Q618.6087 296.3094 618.1556 295.8875Q617.70245 295.45 616.9837 295.45Q616.2181 295.45 615.76495 295.90314Q615.3118 296.35626 615.2962 297.16876L614.2181 297.0594Q614.32745 295.84064 615.0462 295.21564Q615.7806 294.575 617.01495 294.575Q618.2493 294.575 618.9681 295.2625Q619.6868 295.95 619.6868 296.96564Q619.6868 297.48126 619.4681 297.98126Q619.26495 298.46564 618.76495 299.02814Q618.2806 299.575 617.1556 300.52814Q616.20245 301.325 615.9212 301.6219Q615.6556 301.90314 615.4837 302.1844L619.70245 302.1844ZM621.0306 300.6219L621.0306 299.5594L624.2806 299.5594L624.2806 300.6219L621.0306 300.6219ZM630.70245 302.1844L630.70245 303.2L625.01495 303.2Q625.01495 302.825 625.13995 302.46564Q625.3587 301.8875 625.82745 301.325Q626.3118 300.7625 627.2181 300.02814Q628.6243 298.8719 629.1087 298.2Q629.6087 297.52814 629.6087 296.9344Q629.6087 296.3094 629.1556 295.8875Q628.70245 295.45 627.9837 295.45Q627.2181 295.45 626.76495 295.90314Q626.3118 296.35626 626.2962 297.16876L625.2181 297.0594Q625.32745 295.84064 626.0462 295.21564Q626.7806 294.575 628.01495 294.575Q629.2493 294.575 629.9681 295.2625Q630.6868 295.95 630.6868 296.96564Q630.6868 297.48126 630.4681 297.98126Q630.26495 298.46564 629.76495 299.02814Q629.2806 299.575 628.1556 300.52814Q627.20245 301.325 626.9212 301.6219Q626.6556 301.90314 626.4837 302.1844L630.70245 302.1844ZM632.1556 300.95L633.26495 300.85626Q633.38995 301.66876 633.82745 302.075Q634.2806 302.48126 634.9212 302.48126Q635.6712 302.48126 636.20245 301.90314Q636.7337 301.325 636.7337 300.3875Q636.7337 299.48126 636.2181 298.96564Q635.7181 298.4344 634.88995 298.4344Q634.38995 298.4344 633.9681 298.66876Q633.5618 298.90314 633.32745 299.2625L632.3431 299.1375L633.1712 294.73126L637.45245 294.73126L637.45245 295.73126L634.01495 295.73126L633.5618 298.04376Q634.32745 297.4969 635.1712 297.4969Q636.2962 297.4969 637.0618 298.27814Q637.8431 299.0594 637.8431 300.29376Q637.8431 301.45 637.1712 302.3094Q636.3431 303.34064 634.9212 303.34064Q633.7493 303.34064 632.9993 302.6844Q632.26495 302.02814 632.1556 300.95Z" fill-rule="nonzero"/><path stroke="#4285f4" stroke-width="4.0" stroke-linecap="butt" d="M414.0 60.666668L426.0 60.666668" fill-rule="nonzero"/><path fill="#1a1a1a" d="M434.92188 64.666664L434.92188 56.072914L438.17188 56.072914Q439.01562 56.072914 439.46875 56.15104Q440.10938 56.260414 440.53125 56.55729Q440.96875 56.854164 441.21875 57.385414Q441.48438 57.916664 441.48438 58.55729Q441.48438 59.65104 440.78125 60.416664Q440.09375 61.166664 438.26562 61.166664L436.0625 61.166664L436.0625 64.666664L434.92188 64.666664ZM436.0625 60.166664L438.28125 60.166664Q439.39062 60.166664 439.84375 59.760414Q440.3125 59.33854 440.3125 58.58854Q440.3125 58.05729 440.03125 57.68229Q439.76562 57.291664 439.32812 57.166664Q439.03125 57.08854 438.26562 57.08854L436.0625 57.08854L436.0625 60.166664ZM442.89062 64.666664L442.89062 56.072914L444.60938 56.072914L446.64062 62.15104Q446.92188 63.010414 447.04688 63.43229Q447.1875 62.96354 447.5 62.05729L449.5625 56.072914L451.09375 56.072914L451.09375 64.666664L450.0 64.666664L450.0 57.479164L447.5 64.666664L446.46875 64.666664L443.98438 57.354164L443.98438 64.666664L442.89062 64.666664Z" fill-rule="nonzero"/><path stroke="#ea4335" stroke-width="4.0" stroke-linecap="butt" d="M467.0 60.666668L479.0 60.666668" fill-rule="nonzero"/><path fill="#1a1a1a" d="M487.92188 64.666664L487.92188 56.072914L490.89062 56.072914Q491.89062 56.072914 492.42188 56.197914Q493.15625 56.36979 493.67188 56.80729Q494.35938 57.385414 494.6875 58.291664Q495.03125 59.18229 495.03125 60.322914Q495.03125 61.30729 494.79688 62.05729Q494.57812 62.80729 494.21875 63.30729Q493.85938 63.80729 493.42188 64.08854Q493.0 64.36979 492.40625 64.52604Q491.8125 64.666664 491.03125 64.666664L487.92188 64.666664ZM489.0625 63.65104L490.89062 63.65104Q491.75 63.65104 492.23438 63.49479Q492.71875 63.33854 493.0 63.041664Q493.40625 62.65104 493.625 61.96354Q493.85938 61.27604 493.85938 60.30729Q493.85938 58.96354 493.40625 58.24479Q492.96875 57.510414 492.34375 57.260414Q491.875 57.08854 490.875 57.08854L489.0625 57.08854L489.0625 63.65104ZM501.04688 62.666664L502.14062 62.791664Q501.89062 63.74479 501.1875 64.27604Q500.48438 64.80729 499.40625 64.80729Q498.04688 64.80729 497.23438 63.96354Q496.4375 63.11979 496.4375 61.604164Q496.4375 60.041664 497.25 59.18229Q498.0625 58.30729 499.34375 58.30729Q500.59375 58.30729 501.375 59.15104Q502.17188 59.99479 502.17188 61.541664Q502.17188 61.635414 502.17188 61.822914L497.53125 61.822914Q497.59375 62.854164 498.10938 63.40104Q498.625 63.93229 499.40625 63.93229Q499.98438 63.93229 500.39062 63.635414Q500.8125 63.322914 501.04688 62.666664ZM497.59375 60.96354L501.0625 60.96354Q501.0 60.166664 500.67188 59.77604Q500.15625 59.166664 499.35938 59.166664Q498.625 59.166664 498.125 59.65104Q497.64062 60.135414 497.59375 60.96354ZM505.51562 64.666664L503.15625 58.447914L504.26562 58.447914L505.60938 62.166664Q505.8125 62.77604 506.0 63.416664Q506.14062 62.93229 506.39062 62.24479L507.78125 58.447914L508.85938 58.447914L506.5 64.666664L505.51562 64.666664Z" fill-rule="nonzero"/><path stroke="#fbbc04" stroke-width="4.0" stroke-linecap="butt" d="M524.0 60.666668L536.0 60.666668" fill-rule="nonzero"/><path fill="#1a1a1a" d="M547.1094 64.666664L547.1094 57.08854L544.28125 57.08854L544.28125 56.072914L551.09375 56.072914L551.09375 57.08854L548.25 57.08854L548.25 64.666664L547.1094 64.666664ZM556.0469 62.666664L557.1406 62.791664Q556.8906 63.74479 556.1875 64.27604Q555.4844 64.80729 554.40625 64.80729Q553.0469 64.80729 552.2344 63.96354Q551.4375 63.11979 551.4375 61.604164Q551.4375 60.041664 552.25 59.18229Q553.0625 58.30729 554.34375 58.30729Q555.59375 58.30729 556.375 59.15104Q557.1719 59.99479 557.1719 61.541664Q557.1719 61.635414 557.1719 61.822914L552.53125 61.822914Q552.59375 62.854164 553.1094 63.40104Q553.625 63.93229 554.40625 63.93229Q554.9844 63.93229 555.3906 63.635414Q555.8125 63.322914 556.0469 62.666664ZM552.59375 60.96354L556.0625 60.96354Q556.0 60.166664 555.6719 59.77604Q555.15625 59.166664 554.3594 59.166664Q553.625 59.166664 553.125 59.65104Q552.6406 60.135414 552.59375 60.96354ZM558.375 62.80729L559.40625 62.65104Q559.5 63.27604 559.8906 63.604164Q560.2969 63.93229 561.03125 63.93229Q561.75 63.93229 562.09375 63.65104Q562.4531 63.354164 562.4531 62.947914Q562.4531 62.58854 562.1406 62.385414Q561.9219 62.24479 561.0625 62.02604Q559.90625 61.729164 559.4531 61.52604Q559.0156 61.30729 558.78125 60.93229Q558.5469 60.55729 558.5469 60.08854Q558.5469 59.68229 558.7344 59.322914Q558.9219 58.96354 559.25 58.729164Q559.5 58.55729 559.9219 58.43229Q560.34375 58.30729 560.84375 58.30729Q561.5625 58.30729 562.1094 58.52604Q562.6719 58.729164 562.9375 59.08854Q563.2031 59.447914 563.2969 60.041664L562.2656 60.18229Q562.2031 59.71354 561.8594 59.447914Q561.53125 59.166664 560.90625 59.166664Q560.1875 59.166664 559.875 59.416664Q559.5625 59.65104 559.5625 59.979164Q559.5625 60.18229 559.6875 60.33854Q559.8281 60.510414 560.09375 60.61979Q560.25 60.68229 561.03125 60.885414Q562.15625 61.197914 562.59375 61.385414Q563.03125 61.572914 563.28125 61.93229Q563.53125 62.291664 563.53125 62.83854Q563.53125 63.36979 563.21875 63.83854Q562.9219 64.291664 562.34375 64.55729Q561.7656 64.80729 561.03125 64.80729Q559.8125 64.80729 559.1719 64.30729Q558.5469 63.791664 558.375 62.80729ZM568.09375 63.729164L568.25 64.65104Q567.7969 64.74479 567.4531 64.74479Q566.875 64.74479 566.5625 64.572914Q566.25 64.385414 566.1094 64.08854Q565.9844 63.791664 565.9844 62.83854L565.9844 59.260414L565.21875 59.260414L565.21875 58.447914L565.9844 58.447914L565.9844 56.90104L567.03125 56.27604L567.03125 58.447914L568.09375 58.447914L568.09375 59.260414L567.03125 59.260414L567.03125 62.90104Q567.03125 63.354164 567.0781 63.479164Q567.1406 63.604164 567.2656 63.68229Q567.3906 63.760414 567.625 63.760414Q567.8125 63.760414 568.09375 63.729164Z" fill-rule="nonzero"/><path fill="#757575" d="M19.346874 36.8L19.346874 22.4875L24.7375 22.4875Q26.175 22.4875 26.925 22.6125Q27.971874 22.8 28.690624 23.3Q29.409374 23.784374 29.83125 24.675Q30.26875 25.565624 30.26875 26.628124Q30.26875 28.45625 29.096874 29.721874Q27.940624 30.971874 24.909374 30.971874L21.2375 30.971874L21.2375 36.8L19.346874 36.8ZM21.2375 29.284374L24.940624 29.284374Q26.76875 29.284374 27.534374 28.6125Q28.315624 27.925 28.315624 26.675Q28.315624 25.784374 27.8625 25.14375Q27.409374 24.503124 26.675 24.3Q26.190624 24.175 24.89375 24.175L21.2375 24.175L21.2375 29.284374ZM32.284374 36.8L32.284374 22.4875L35.14375 22.4875L38.51875 32.6125Q38.9875 34.034374 39.20625 34.7375Q39.45625 33.95625 39.971874 32.440624L43.39375 22.4875L45.940624 22.4875L45.940624 36.8L44.128124 36.8L44.128124 24.815624L39.95625 36.8L38.253124 36.8L34.1125 24.6125L34.1125 36.8L32.284374 36.8ZM49.58125 36.8L49.58125 34.8L51.58125 34.8L51.58125 36.8Q51.58125 37.909374 51.190624 38.58125Q50.8 39.26875 49.95625 39.628124L49.45625 38.878124Q50.01875 38.64375 50.284374 38.159374Q50.55 37.690624 50.58125 36.8L49.58125 36.8ZM61.346874 36.8L61.346874 22.4875L66.26875 22.4875Q67.94063 22.4875 68.83125 22.690624Q70.05 22.971874 70.925 23.70625Q72.05 24.675 72.6125 26.159374Q73.175 27.64375 73.175 29.565624Q73.175 31.190624 72.8 32.45625Q72.425 33.70625 71.81563 34.534374Q71.22188 35.3625 70.51875 35.846874Q69.81563 36.315624 68.81563 36.565624Q67.81563 36.8 66.50313 36.8L61.346874 36.8ZM63.2375 35.1125L66.3 35.1125Q67.70625 35.1125 68.50313 34.846874Q69.31563 34.58125 69.8 34.096874Q70.47188 33.425 70.84688 32.3Q71.22188 31.159374 71.22188 29.534374Q71.22188 27.284374 70.4875 26.08125Q69.75313 24.878124 68.69063 24.471874Q67.94063 24.175 66.25313 24.175L63.2375 24.175L63.2375 35.1125ZM82.22188 33.45625L84.03438 33.690624Q83.6125 35.26875 82.44063 36.159374Q81.28438 37.034374 79.47188 37.034374Q77.20625 37.034374 75.8625 35.64375Q74.53438 34.2375 74.53438 31.70625Q74.53438 29.08125 75.87813 27.64375Q77.22188 26.190624 79.37813 26.190624Q81.45625 26.190624 82.76875 27.6125Q84.09688 29.01875 84.09688 31.596874Q84.09688 31.753124 84.08125 32.065624L76.34688 32.065624Q76.44063 33.76875 77.31563 34.675Q78.19063 35.58125 79.4875 35.58125Q80.45625 35.58125 81.12813 35.08125Q81.81563 34.565624 82.22188 33.45625ZM76.44063 30.6125L82.2375 30.6125Q82.12813 29.315624 81.58125 28.659374Q80.7375 27.64375 79.39375 27.64375Q78.19063 27.64375 77.3625 28.45625Q76.53438 29.253124 76.44063 30.6125ZM89.00313 36.8L85.05 26.425L86.90938 26.425L89.14375 32.64375Q89.50313 33.64375 89.8 34.721874Q90.03438 33.909374 90.45625 32.753124L92.75313 26.425L94.56563 26.425L90.64375 36.8L89.00313 36.8ZM107.89375 35.51875Q106.90938 36.346874 106.00313 36.690624Q105.09688 37.034374 104.06563 37.034374Q102.3625 37.034374 101.44063 36.20625Q100.51875 35.3625 100.51875 34.065624Q100.51875 33.3 100.8625 32.675Q101.22188 32.05 101.78438 31.675Q102.34688 31.284374 103.05 31.08125Q103.56563 30.95625 104.6125 30.815624Q106.7375 30.565624 107.7375 30.221874Q107.75313 29.8625 107.75313 29.753124Q107.75313 28.690624 107.25313 28.2375Q106.58125 27.64375 105.25313 27.64375Q104.00313 27.64375 103.40938 28.08125Q102.83125 28.51875 102.55 29.628124L100.83125 29.39375Q101.06563 28.284374 101.59688 27.6125Q102.12813 26.925 103.14375 26.565624Q104.15938 26.190624 105.50313 26.190624Q106.83125 26.190624 107.65938 26.503124Q108.4875 26.815624 108.87813 27.3Q109.26875 27.76875 109.425 28.4875Q109.51875 28.940624 109.51875 30.1125L109.51875 32.45625Q109.51875 34.909374 109.62813 35.565624Q109.7375 36.20625 110.08125 36.8L108.2375 36.8Q107.97188 36.253124 107.89375 35.51875ZM107.7375 31.596874Q106.78438 31.9875 104.8625 32.253124Q103.78438 32.409374 103.33125 32.6125Q102.89375 32.8 102.64375 33.175Q102.39375 33.55 102.39375 34.01875Q102.39375 34.721874 102.925 35.190624Q103.45625 35.659374 104.4875 35.659374Q105.50313 35.659374 106.28438 35.221874Q107.08125 34.76875 107.45625 34.003124Q107.7375 33.39375 107.7375 32.2375L107.7375 31.596874ZM112.1125 36.8L112.1125 26.425L113.70625 26.425L113.70625 27.909374Q114.84688 26.190624 117.00313 26.190624Q117.94063 26.190624 118.72188 26.534374Q119.51875 26.8625 119.90938 27.409374Q120.3 27.95625 120.45625 28.70625Q120.55 29.20625 120.55 30.425L120.55 36.8L118.78438 36.8L118.78438 30.4875Q118.78438 29.409374 118.58125 28.878124Q118.37813 28.346874 117.84688 28.034374Q117.33125 27.721874 116.62813 27.721874Q115.50313 27.721874 114.69063 28.440624Q113.87813 29.14375 113.87813 31.128124L113.87813 36.8L112.1125 36.8ZM128.84688 36.8L128.84688 35.4875Q127.8625 37.034374 125.94063 37.034374Q124.70625 37.034374 123.65938 36.346874Q122.62813 35.659374 122.05 34.440624Q121.4875 33.221874 121.4875 31.628124Q121.4875 30.065624 122.00313 28.8Q122.51875 27.534374 123.55 26.8625Q124.59688 26.190624 125.8625 26.190624Q126.8 26.190624 127.53438 26.596874Q128.26875 26.9875 128.7375 27.6125L128.7375 22.4875L130.47188 22.4875L130.47188 36.8L128.84688 36.8ZM123.28438 31.628124Q123.28438 33.6125 124.12813 34.596874Q124.97188 35.58125 126.1125 35.58125Q127.26875 35.58125 128.06563 34.64375Q128.87813 33.70625 128.87813 31.76875Q128.87813 29.64375 128.05 28.64375Q127.2375 27.64375 126.03438 27.64375Q124.8625 27.64375 124.06563 28.6125Q123.28438 29.565624 123.28438 31.628124ZM142.9875 36.8L142.9875 24.175L138.26875 24.175L138.26875 22.4875L149.6125 22.4875L149.6125 24.175L144.87813 24.175L144.87813 36.8L142.9875 36.8ZM158.22188 33.45625L160.03438 33.690624Q159.6125 35.26875 158.44063 36.159374Q157.28438 37.034374 155.47188 37.034374Q153.20625 37.034374 151.8625 35.64375Q150.53438 34.2375 150.53438 31.70625Q150.53438 29.08125 151.87813 27.64375Q153.22188 26.190624 155.37813 26.190624Q157.45625 26.190624 158.76875 27.6125Q160.09688 29.01875 160.09688 31.596874Q160.09688 31.753124 160.08125 32.065624L152.34688 32.065624Q152.44063 33.76875 153.31563 34.675Q154.19063 35.58125 155.4875 35.58125Q156.45625 35.58125 157.12813 35.08125Q157.81563 34.565624 158.22188 33.45625ZM152.44063 30.6125L158.2375 30.6125Q158.12813 29.315624 157.58125 28.659374Q156.7375 27.64375 155.39375 27.64375Q154.19063 27.64375 153.3625 28.45625Q152.53438 29.253124 152.44063 30.6125ZM161.40938 33.70625L163.15938 33.425Q163.3 34.471874 163.97188 35.034374Q164.64375 35.58125 165.84688 35.58125Q167.05 35.58125 167.62813 35.096874Q168.22188 34.596874 168.22188 33.940624Q168.22188 33.346874 167.70625 33.003124Q167.34688 32.76875 165.90938 32.409374Q163.97188 31.909374 163.22188 31.565624Q162.4875 31.20625 162.09688 30.58125Q161.70625 29.940624 161.70625 29.175Q161.70625 28.4875 162.01875 27.89375Q162.34688 27.3 162.89375 26.909374Q163.3 26.6125 164.00313 26.409374Q164.72188 26.190624 165.53438 26.190624Q166.75313 26.190624 167.675 26.55Q168.59688 26.89375 169.03438 27.503124Q169.47188 28.096874 169.64375 29.096874L167.925 29.33125Q167.8 28.534374 167.2375 28.096874Q166.675 27.64375 165.65938 27.64375Q164.44063 27.64375 163.925 28.05Q163.40938 28.440624 163.40938 28.971874Q163.40938 29.315624 163.62813 29.596874Q163.83125 29.878124 164.3 30.065624Q164.56563 30.159374 165.84688 30.503124Q167.72188 31.003124 168.45625 31.33125Q169.19063 31.64375 169.6125 32.253124Q170.03438 32.846874 170.03438 33.753124Q170.03438 34.628124 169.51875 35.409374Q169.00313 36.190624 168.03438 36.6125Q167.06563 37.034374 165.84688 37.034374Q163.83125 37.034374 162.76875 36.190624Q161.70625 35.346874 161.40938 33.70625ZM175.95625 35.221874L176.20625 36.784374Q175.47188 36.940624 174.87813 36.940624Q173.925 36.940624 173.39375 36.64375Q172.87813 36.33125 172.65938 35.846874Q172.44063 35.346874 172.44063 33.76875L172.44063 27.8L171.15938 27.8L171.15938 26.425L172.44063 26.425L172.44063 23.8625L174.19063 22.8L174.19063 26.425L175.95625 26.425L175.95625 27.8L174.19063 27.8L174.19063 33.8625Q174.19063 34.6125 174.28438 34.83125Q174.37813 35.034374 174.58125 35.175Q174.8 35.3 175.19063 35.3Q175.47188 35.3 175.95625 35.221874Z" fill-rule="nonzero"/></svg>